<?xml version="1.0" encoding="UTF-8"?>
<svg id="Layer_1" data-name="Layer 1" xmlns="http://www.w3.org/2000/svg" viewBox="0 0 1200 600">
  <defs>
    <style>
      .cls-1 {
        fill: #f1f1f1;
      }

      .cls-2 {
        fill: #000097;
      }

      .cls-3 {
        fill: #fcf9b4;
      }

      .cls-4 {
        fill: #000ea2;
      }

      .cls-5 {
        fill: #b4eafd;
      }

      .cls-6 {
        fill: #fff;
      }

      .cls-7 {
        fill: #def6ac;
      }

      .cls-8 {
        fill: silver;
      }

      .cls-9 {
        fill: #00e8ff;
      }

      .cls-10 {
        fill: #facfbb;
      }
    </style>
  </defs>
  <g>
    <path class="cls-4" d="M271.05,70.7h7.23c1.18,0,2.25.1,3.23.29.98.2,1.83.51,2.56.93.73.43,1.29,1,1.69,1.71.4.72.61,1.59.61,2.63s-.32,2.09-.95,3.01-1.61,1.56-2.92,1.9v.14c1.64.28,2.89.86,3.75,1.75.86.89,1.3,2.09,1.3,3.61,0,1.13-.22,2.11-.66,2.94-.44.83-1.04,1.52-1.82,2.07s-1.69.96-2.75,1.23c-1.06.27-2.21.4-3.46.4h-7.82v-22.62ZM277.93,80.07c1.59,0,2.74-.29,3.44-.86s1.06-1.39,1.06-2.46-.37-1.79-1.11-2.25c-.74-.46-1.85-.69-3.32-.69h-2.94v6.26h2.87ZM278.45,90.21c1.66,0,2.94-.31,3.84-.93.9-.62,1.35-1.58,1.35-2.87,0-1.18-.44-2.05-1.31-2.61-.88-.56-2.17-.85-3.87-.85h-3.39v7.26h3.39Z"/>
    <path class="cls-4" d="M290.24,84.85c0-1.38.22-2.63.66-3.74.44-1.11,1.02-2.04,1.75-2.8s1.56-1.35,2.51-1.76c.94-.42,1.91-.62,2.91-.62,1.15,0,2.17.2,3.04.59.88.39,1.61.95,2.2,1.66.59.72,1.03,1.57,1.33,2.56.3.99.45,2.07.45,3.25,0,.78-.06,1.41-.17,1.87h-10.79c.18,1.54.72,2.73,1.61,3.56.89.83,2.02,1.25,3.41,1.25.74,0,1.42-.11,2.06-.33.63-.22,1.26-.52,1.88-.92l1.35,2.49c-.81.53-1.71.97-2.7,1.31-.99.35-2.03.52-3.11.52-1.18,0-2.27-.2-3.28-.6-1.02-.4-1.9-.99-2.66-1.75-.76-.76-1.36-1.69-1.78-2.78-.43-1.09-.64-2.35-.64-3.75ZM301.62,83.32c0-1.36-.28-2.42-.85-3.18-.56-.76-1.43-1.14-2.61-1.14-1.01,0-1.9.36-2.66,1.09s-1.23,1.8-1.42,3.23h7.54Z"/>
    <path class="cls-4" d="M317.42,72.05c-.62-.28-1.25-.41-1.87-.41-1.43,0-2.14.96-2.14,2.87v1.83h3.32v3.15h-3.32v13.83h-3.98v-13.83h-2.28v-2.97l2.28-.17v-1.76c0-.88.1-1.69.31-2.44.21-.75.54-1.39,1-1.94.46-.54,1.04-.96,1.75-1.26s1.56-.45,2.58-.45c.6,0,1.17.06,1.71.17s1.01.25,1.4.41l-.76,2.97Z"/>
    <path class="cls-4" d="M318.25,84.85c0-1.41.22-2.66.66-3.77.44-1.11,1.03-2.04,1.78-2.8.75-.76,1.61-1.34,2.58-1.75.97-.4,1.98-.6,3.04-.6s2.08.2,3.06.6c.98.4,1.84.99,2.58,1.75.74.76,1.33,1.69,1.78,2.8.45,1.11.67,2.36.67,3.77s-.22,2.66-.67,3.77c-.45,1.11-1.04,2.04-1.78,2.8-.74.76-1.6,1.34-2.58,1.73-.98.39-2,.59-3.06.59s-2.07-.2-3.04-.59c-.97-.39-1.83-.97-2.58-1.73-.75-.76-1.34-1.69-1.78-2.8-.44-1.11-.66-2.36-.66-3.77ZM322.33,84.85c0,1.71.35,3.07,1.05,4.1.7,1.03,1.68,1.54,2.92,1.54s2.23-.51,2.94-1.54c.71-1.03,1.07-2.39,1.07-4.1s-.36-3.11-1.07-4.13-1.69-1.54-2.94-1.54-2.22.51-2.92,1.54-1.05,2.4-1.05,4.13Z"/>
    <path class="cls-4" d="M338.35,76.34h3.28l.28,3.01h.14c.6-1.11,1.33-1.95,2.18-2.54s1.73-.88,2.63-.88c.81,0,1.45.12,1.94.35l-.69,3.46c-.3-.09-.58-.16-.83-.21-.25-.05-.56-.07-.93-.07-.67,0-1.37.26-2.11.78-.74.52-1.37,1.42-1.9,2.72v10.38h-3.98v-16.98Z"/>
    <path class="cls-4" d="M349.79,84.85c0-1.38.22-2.63.66-3.74.44-1.11,1.02-2.04,1.75-2.8s1.56-1.35,2.51-1.76c.94-.42,1.91-.62,2.91-.62,1.15,0,2.17.2,3.04.59.88.39,1.61.95,2.2,1.66.59.72,1.03,1.57,1.33,2.56.3.99.45,2.07.45,3.25,0,.78-.06,1.41-.17,1.87h-10.79c.18,1.54.72,2.73,1.61,3.56.89.83,2.02,1.25,3.41,1.25.74,0,1.42-.11,2.06-.33.63-.22,1.26-.52,1.88-.92l1.35,2.49c-.81.53-1.71.97-2.7,1.31-.99.35-2.03.52-3.11.52-1.18,0-2.27-.2-3.28-.6-1.02-.4-1.9-.99-2.66-1.75-.76-.76-1.36-1.69-1.78-2.78-.43-1.09-.64-2.35-.64-3.75ZM361.17,83.32c0-1.36-.28-2.42-.85-3.18-.56-.76-1.43-1.14-2.61-1.14-1.01,0-1.9.36-2.66,1.09s-1.23,1.8-1.42,3.23h7.54Z"/>
  </g>
  <path class="cls-2" d="M600,538.56c-.42,0-.75-.34-.75-.75s.34-.83.75-.83.75.26.75.68v.15c0,.42-.34.75-.75.75ZM600,533.89c-.42,0-.75-.34-.75-.75v-.15c0-.42.34-.75.75-.75s.75.34.75.75v.15c0,.42-.34.75-.75.75ZM600,529.23c-.42,0-.75-.34-.75-.75s.34-.83.75-.83.75.26.75.68v.15c0,.42-.34.75-.75.75ZM600,524.57c-.42,0-.75-.34-.75-.75v-.15c0-.42.34-.75.75-.75s.75.34.75.75v.15c0,.42-.34.75-.75.75ZM600,519.91c-.42,0-.75-.34-.75-.75s.34-.83.75-.83.75.26.75.68v.15c0,.42-.34.75-.75.75ZM600,515.25c-.42,0-.75-.34-.75-.75s.34-.83.75-.83.75.26.75.68v.15c0,.42-.34.75-.75.75ZM600,510.59c-.42,0-.75-.34-.75-.75v-.15c0-.42.34-.75.75-.75s.75.34.75.75v.15c0,.42-.34.75-.75.75ZM600,505.93c-.42,0-.75-.34-.75-.75s.34-.83.75-.83.75.26.75.68v.15c0,.42-.34.75-.75.75ZM600,501.27c-.42,0-.75-.34-.75-.75v-.15c0-.42.34-.75.75-.75s.75.34.75.75v.15c0,.42-.34.75-.75.75ZM600,496.6c-.42,0-.75-.34-.75-.75s.34-.83.75-.83.75.26.75.68v.15c0,.42-.34.75-.75.75ZM600,491.94c-.42,0-.75-.34-.75-.75s.34-.83.75-.83.75.26.75.68v.15c0,.42-.34.75-.75.75ZM600,487.28c-.42,0-.75-.34-.75-.75v-.15c0-.42.34-.75.75-.75s.75.34.75.75v.15c0,.42-.34.75-.75.75ZM600,482.62c-.42,0-.75-.34-.75-.75s.34-.83.75-.83.75.26.75.68v.15c0,.42-.34.75-.75.75ZM600,477.96c-.42,0-.75-.34-.75-.75v-.15c0-.42.34-.75.75-.75s.75.34.75.75v.15c0,.42-.34.75-.75.75ZM600,473.3c-.42,0-.75-.34-.75-.75s.34-.83.75-.83.75.26.75.68v.15c0,.42-.34.75-.75.75ZM600,468.64c-.42,0-.75-.34-.75-.75s.34-.83.75-.83.75.26.75.68v.15c0,.42-.34.75-.75.75ZM600,463.97c-.42,0-.75-.34-.75-.75v-.15c0-.42.34-.75.75-.75s.75.34.75.75v.15c0,.42-.34.75-.75.75ZM600,459.31c-.42,0-.75-.34-.75-.75s.34-.83.75-.83.75.26.75.68v.15c0,.42-.34.75-.75.75ZM600,454.65c-.42,0-.75-.34-.75-.75v-.15c0-.42.34-.75.75-.75s.75.34.75.75v.15c0,.42-.34.75-.75.75ZM600,449.99c-.42,0-.75-.34-.75-.75s.34-.83.75-.83.75.26.75.68v.15c0,.42-.34.75-.75.75ZM600,445.33c-.42,0-.75-.34-.75-.75s.34-.83.75-.83.75.26.75.68v.15c0,.42-.34.75-.75.75ZM600,440.67c-.42,0-.75-.34-.75-.75v-.15c0-.42.34-.75.75-.75s.75.34.75.75v.15c0,.42-.34.75-.75.75ZM600,436.01c-.42,0-.75-.34-.75-.75s.34-.83.75-.83.75.26.75.68v.15c0,.42-.34.75-.75.75ZM600,431.35c-.42,0-.75-.34-.75-.75v-.15c0-.42.34-.75.75-.75s.75.34.75.75v.15c0,.42-.34.75-.75.75ZM600,426.68c-.42,0-.75-.34-.75-.75s.34-.83.75-.83.75.26.75.68v.15c0,.42-.34.75-.75.75ZM600,422.02c-.42,0-.75-.34-.75-.75v-.15c0-.42.34-.75.75-.75s.75.34.75.75v.15c0,.42-.34.75-.75.75ZM600,417.36c-.42,0-.75-.34-.75-.75s.34-.83.75-.83.75.26.75.68v.15c0,.42-.34.75-.75.75ZM600,412.7c-.42,0-.75-.34-.75-.75s.34-.83.75-.83.75.26.75.68v.15c0,.42-.34.75-.75.75ZM600,408.04c-.42,0-.75-.34-.75-.75v-.15c0-.42.34-.75.75-.75s.75.34.75.75v.15c0,.42-.34.75-.75.75ZM600,403.38c-.42,0-.75-.34-.75-.75s.34-.83.75-.83.75.26.75.68v.15c0,.42-.34.75-.75.75ZM600,398.72c-.42,0-.75-.34-.75-.75v-.15c0-.42.34-.75.75-.75s.75.34.75.75v.15c0,.42-.34.75-.75.75ZM600,394.05c-.42,0-.75-.34-.75-.75s.34-.83.75-.83.75.26.75.68v.15c0,.42-.34.75-.75.75ZM600,389.39c-.42,0-.75-.34-.75-.75s.34-.83.75-.83.75.26.75.68v.15c0,.42-.34.75-.75.75ZM600,384.73c-.42,0-.75-.34-.75-.75v-.15c0-.42.34-.75.75-.75s.75.34.75.75v.15c0,.42-.34.75-.75.75ZM600,380.07c-.42,0-.75-.34-.75-.75s.34-.83.75-.83.75.26.75.68v.15c0,.42-.34.75-.75.75ZM600,375.41c-.42,0-.75-.34-.75-.75v-.15c0-.42.34-.75.75-.75s.75.34.75.75v.15c0,.42-.34.75-.75.75ZM600,370.75c-.42,0-.75-.34-.75-.75s.34-.83.75-.83.75.26.75.68v.15c0,.42-.34.75-.75.75ZM600,366.09c-.42,0-.75-.34-.75-.75s.34-.83.75-.83.75.26.75.68v.15c0,.42-.34.75-.75.75ZM600,361.42c-.42,0-.75-.34-.75-.75v-.15c0-.42.34-.75.75-.75s.75.34.75.75v.15c0,.42-.34.75-.75.75ZM600,356.76c-.42,0-.75-.34-.75-.75s.34-.83.75-.83.75.26.75.68v.15c0,.42-.34.75-.75.75ZM600,352.1c-.42,0-.75-.34-.75-.75v-.15c0-.42.34-.75.75-.75s.75.34.75.75v.15c0,.42-.34.75-.75.75ZM600,347.44c-.42,0-.75-.34-.75-.75s.34-.83.75-.83.75.26.75.68v.15c0,.42-.34.75-.75.75ZM600,342.78c-.42,0-.75-.34-.75-.75s.34-.83.75-.83.75.26.75.68v.15c0,.42-.34.75-.75.75ZM600,338.12c-.42,0-.75-.34-.75-.75v-.15c0-.42.34-.75.75-.75s.75.34.75.75v.15c0,.42-.34.75-.75.75ZM600,333.46c-.42,0-.75-.34-.75-.75s.34-.83.75-.83.75.26.75.68v.15c0,.42-.34.75-.75.75ZM600,328.8c-.42,0-.75-.34-.75-.75v-.15c0-.42.34-.75.75-.75s.75.34.75.75v.15c0,.42-.34.75-.75.75ZM600,324.13c-.42,0-.75-.34-.75-.75s.34-.83.75-.83.75.26.75.68v.15c0,.42-.34.75-.75.75ZM600,319.47c-.42,0-.75-.34-.75-.75s.34-.83.75-.83.75.26.75.68v.15c0,.42-.34.75-.75.75ZM600,314.81c-.42,0-.75-.34-.75-.75v-.15c0-.42.34-.75.75-.75s.75.34.75.75v.15c0,.42-.34.75-.75.75ZM600,310.15c-.42,0-.75-.34-.75-.75s.34-.83.75-.83.75.26.75.68v.15c0,.42-.34.75-.75.75ZM600,305.49c-.42,0-.75-.34-.75-.75v-.15c0-.42.34-.75.75-.75s.75.34.75.75v.15c0,.42-.34.75-.75.75ZM600,300.83c-.42,0-.75-.34-.75-.75s.34-.83.75-.83.75.26.75.68v.15c0,.42-.34.75-.75.75ZM600,296.17c-.42,0-.75-.34-.75-.75v-.15c0-.42.34-.75.75-.75s.75.34.75.75v.15c0,.42-.34.75-.75.75ZM600,291.5c-.42,0-.75-.34-.75-.75s.34-.83.75-.83.75.26.75.68v.15c0,.42-.34.75-.75.75ZM600,286.84c-.42,0-.75-.34-.75-.75s.34-.83.75-.83.75.26.75.68v.15c0,.42-.34.75-.75.75ZM600,282.18c-.42,0-.75-.34-.75-.75v-.15c0-.42.34-.75.75-.75s.75.34.75.75v.15c0,.42-.34.75-.75.75ZM600,277.52c-.42,0-.75-.34-.75-.75s.34-.83.75-.83.75.26.75.68v.15c0,.42-.34.75-.75.75ZM600,272.86c-.42,0-.75-.34-.75-.75v-.15c0-.42.34-.75.75-.75s.75.34.75.75v.15c0,.42-.34.75-.75.75ZM600,268.2c-.42,0-.75-.34-.75-.75s.34-.83.75-.83.75.26.75.68v.15c0,.42-.34.75-.75.75ZM600,263.54c-.42,0-.75-.34-.75-.75s.34-.83.75-.83.75.26.75.68v.15c0,.42-.34.75-.75.75ZM600,258.88c-.42,0-.75-.34-.75-.75v-.15c0-.42.34-.75.75-.75s.75.34.75.75v.15c0,.42-.34.75-.75.75ZM600,254.21c-.42,0-.75-.34-.75-.75s.34-.83.75-.83.75.26.75.68v.15c0,.42-.34.75-.75.75ZM600,249.55c-.42,0-.75-.34-.75-.75v-.15c0-.42.34-.75.75-.75s.75.34.75.75v.15c0,.42-.34.75-.75.75ZM600,244.89c-.42,0-.75-.34-.75-.75s.34-.83.75-.83.75.26.75.68v.15c0,.42-.34.75-.75.75ZM600,240.23c-.42,0-.75-.34-.75-.75s.34-.83.75-.83.75.26.75.68v.15c0,.42-.34.75-.75.75ZM600,235.57c-.42,0-.75-.34-.75-.75v-.15c0-.42.34-.75.75-.75s.75.34.75.75v.15c0,.42-.34.75-.75.75ZM600,230.91c-.42,0-.75-.34-.75-.75s.34-.83.75-.83.75.26.75.68v.15c0,.42-.34.75-.75.75ZM600,226.25c-.42,0-.75-.34-.75-.75v-.15c0-.42.34-.75.75-.75s.75.34.75.75v.15c0,.42-.34.75-.75.75ZM600,221.58c-.42,0-.75-.34-.75-.75s.34-.83.75-.83.75.26.75.68v.15c0,.42-.34.75-.75.75ZM600,216.92c-.42,0-.75-.34-.75-.75s.34-.83.75-.83.75.26.75.68v.15c0,.42-.34.75-.75.75ZM600,212.26c-.42,0-.75-.34-.75-.75v-.15c0-.42.34-.75.75-.75s.75.34.75.75v.15c0,.42-.34.75-.75.75ZM600,207.6c-.42,0-.75-.34-.75-.75v-.15c0-.42.34-.75.75-.75s.75.34.75.75v.15c0,.41-.34.75-.75.75ZM600,202.94c-.42,0-.75-.34-.75-.75v-.15c0-.42.34-.75.75-.75s.75.34.75.75v.15c0,.42-.34.75-.75.75ZM600,198.28c-.42,0-.75-.34-.75-.75v-.15c0-.42.34-.75.75-.75s.75.34.75.75v.15c0,.42-.34.75-.75.75ZM600,193.62c-.42,0-.75-.34-.75-.75v-.15c0-.42.34-.75.75-.75s.75.34.75.75v.15c0,.42-.34.75-.75.75ZM600,188.95c-.42,0-.75-.34-.75-.75s.34-.83.75-.83.75.26.75.68v.15c0,.42-.34.75-.75.75ZM600,184.29c-.42,0-.75-.34-.75-.75v-.15c0-.42.34-.75.75-.75s.75.34.75.75v.15c0,.42-.34.75-.75.75ZM600,179.63c-.42,0-.75-.34-.75-.75v-.15c0-.42.34-.75.75-.75s.75.34.75.75v.15c0,.42-.34.75-.75.75ZM600,174.97c-.42,0-.75-.34-.75-.75v-.15c0-.42.34-.75.75-.75s.75.34.75.75v.15c0,.42-.34.75-.75.75ZM600,170.31c-.42,0-.75-.34-.75-.75v-.15c0-.42.34-.75.75-.75s.75.34.75.75v.15c0,.42-.34.75-.75.75ZM600,165.65c-.42,0-.75-.34-.75-.75s.34-.83.75-.83.75.26.75.68v.15c0,.42-.34.75-.75.75ZM600,160.99c-.42,0-.75-.34-.75-.75v-.15c0-.42.34-.75.75-.75s.75.34.75.75v.15c0,.42-.34.75-.75.75ZM600,156.33c-.42,0-.75-.34-.75-.75v-.15c0-.42.34-.75.75-.75s.75.34.75.75v.15c0,.42-.34.75-.75.75ZM600,151.66c-.42,0-.75-.34-.75-.75v-.15c0-.42.34-.75.75-.75s.75.34.75.75v.15c0,.42-.34.75-.75.75ZM600,147c-.42,0-.75-.34-.75-.75v-.15c0-.42.34-.75.75-.75s.75.34.75.75v.15c0,.42-.34.75-.75.75ZM600,142.34c-.42,0-.75-.34-.75-.75s.34-.83.75-.83.75.26.75.68v.15c0,.42-.34.75-.75.75ZM600,137.68c-.42,0-.75-.34-.75-.75v-.15c0-.42.34-.75.75-.75s.75.34.75.75v.15c0,.42-.34.75-.75.75ZM600,133.02c-.42,0-.75-.34-.75-.75v-.15c0-.42.34-.75.75-.75s.75.34.75.75v.15c0,.42-.34.75-.75.75ZM600,128.36c-.42,0-.75-.34-.75-.75v-.15c0-.42.34-.75.75-.75s.75.34.75.75v.15c0,.42-.34.75-.75.75ZM600,123.7c-.42,0-.75-.34-.75-.75v-.15c0-.42.34-.75.75-.75s.75.34.75.75v.15c0,.42-.34.75-.75.75ZM600,119.03c-.42,0-.75-.34-.75-.75s.34-.83.75-.83.75.26.75.68v.15c0,.42-.34.75-.75.75ZM600,114.37c-.42,0-.75-.34-.75-.75v-.15c0-.42.34-.75.75-.75s.75.34.75.75v.15c0,.42-.34.75-.75.75ZM600,109.71c-.42,0-.75-.34-.75-.75v-.15c0-.42.34-.75.75-.75s.75.34.75.75v.15c0,.42-.34.75-.75.75ZM600,105.05c-.42,0-.75-.34-.75-.75v-.15c0-.42.34-.75.75-.75s.75.34.75.75v.15c0,.42-.34.75-.75.75ZM600,100.39c-.42,0-.75-.34-.75-.75v-.15c0-.42.34-.75.75-.75s.75.34.75.75v.15c0,.42-.34.75-.75.75ZM600,95.73c-.42,0-.75-.34-.75-.75s.34-.83.75-.83.75.26.75.68v.15c0,.42-.34.75-.75.75ZM600,91.07c-.42,0-.75-.34-.75-.75v-.15c0-.42.34-.75.75-.75s.75.34.75.75v.15c0,.42-.34.75-.75.75ZM600,86.41c-.42,0-.75-.34-.75-.75v-.15c0-.42.34-.75.75-.75s.75.34.75.75v.15c0,.42-.34.75-.75.75ZM600,81.74c-.42,0-.75-.34-.75-.75v-.15c0-.42.34-.75.75-.75s.75.34.75.75v.15c0,.42-.34.75-.75.75ZM600,77.08c-.42,0-.75-.34-.75-.75v-.15c0-.42.34-.75.75-.75s.75.34.75.75v.15c0,.42-.34.75-.75.75ZM600,72.42c-.42,0-.75-.34-.75-.75s.34-.83.75-.83.75.26.75.68v.15c0,.42-.34.75-.75.75ZM600,67.76c-.42,0-.75-.34-.75-.75v-.15c0-.42.34-.75.75-.75s.75.34.75.75v.15c0,.42-.34.75-.75.75ZM600,63.1c-.42,0-.75-.34-.75-.75v-.15c0-.42.34-.75.75-.75s.75.34.75.75v.15c0,.42-.34.75-.75.75Z"/>
  <rect class="cls-1" x="90.49" y="243.34" width="453.38" height="280.03" rx="6.5" ry="6.5"/>
  <g>
    <path class="cls-2" d="M188.14,479.43h3.87c1.05,0,2,.13,2.84.4.84.27,1.56.68,2.17,1.23.6.56,1.07,1.26,1.39,2.12.32.86.48,1.87.48,3.05s-.16,2.2-.48,3.07c-.32.87-.78,1.59-1.37,2.16s-1.29.99-2.12,1.27c-.82.28-1.74.42-2.75.42h-4.04v-13.73ZM191.82,490.65c.59,0,1.12-.08,1.6-.23.48-.15.88-.4,1.22-.75.34-.34.6-.8.79-1.36s.28-1.26.28-2.09-.09-1.5-.28-2.05c-.19-.56-.45-1-.79-1.33-.34-.33-.74-.57-1.22-.71-.48-.14-1.01-.21-1.6-.21h-.59v8.72h.59Z"/>
    <path class="cls-2" d="M200.64,487.94c0-.84.14-1.6.42-2.28.28-.68.65-1.26,1.1-1.73s.98-.83,1.57-1.09,1.2-.38,1.83-.38c.74,0,1.39.13,1.95.38.55.25,1.02.6,1.39,1.05.37.45.65.98.83,1.59.18.61.27,1.27.27,1.99,0,.28-.01.54-.04.77-.03.23-.06.41-.08.54h-6.25c.14.8.45,1.38.94,1.74.48.36,1.08.54,1.78.54.74,0,1.49-.23,2.25-.69l1.03,1.87c-.53.37-1.13.65-1.78.86-.65.21-1.29.32-1.93.32-.74,0-1.44-.12-2.08-.37s-1.21-.6-1.68-1.07c-.48-.47-.85-1.04-1.12-1.72-.27-.67-.4-1.45-.4-2.32ZM207.38,486.86c0-.6-.13-1.1-.4-1.47s-.72-.57-1.35-.57c-.49,0-.92.16-1.29.49-.37.33-.61.85-.73,1.55h3.77Z"/>
    <path class="cls-2" d="M211.61,487.94c0-.86.12-1.62.37-2.3.25-.67.57-1.25.97-1.72s.86-.83,1.39-1.09,1.06-.38,1.61-.38c.59,0,1.07.1,1.45.3s.75.46,1.12.8l-.13-1.6v-3.56h3.09v14.76h-2.53l-.21-1.03h-.08c-.36.36-.79.67-1.28.91s-.99.37-1.49.37c-.65,0-1.23-.13-1.76-.38-.53-.25-.98-.61-1.35-1.08-.37-.47-.66-1.04-.86-1.72-.2-.67-.31-1.44-.31-2.29ZM214.79,487.89c0,1.04.16,1.8.49,2.27s.8.72,1.4.72c.34,0,.64-.07.92-.21.27-.14.54-.38.79-.74v-4.27c-.28-.25-.57-.43-.86-.53s-.58-.15-.86-.15c-.49,0-.93.23-1.3.7s-.57,1.2-.57,2.2Z"/>
    <path class="cls-2" d="M225.75,481.18c-.52,0-.95-.15-1.28-.45-.34-.3-.51-.69-.51-1.17s.17-.86.51-1.16c.34-.29.76-.44,1.28-.44s.96.15,1.29.44c.33.3.49.68.49,1.16s-.17.87-.49,1.17c-.33.3-.76.45-1.29.45ZM224.22,482.71h3.09v10.44h-3.09v-10.44Z"/>
    <path class="cls-2" d="M229.42,487.94c0-.87.15-1.65.44-2.33.3-.68.69-1.25,1.19-1.72.5-.46,1.08-.82,1.74-1.06.66-.25,1.35-.37,2.06-.37.65,0,1.23.11,1.75.33.52.22.95.51,1.31.87l-1.41,1.92c-.49-.41-.98-.61-1.45-.61-.76,0-1.35.27-1.79.8-.43.53-.65,1.26-.65,2.17s.22,1.63.66,2.17c.44.53,1,.8,1.67.8.38,0,.72-.08,1.03-.23.31-.15.59-.33.84-.53l1.24,1.96c-.51.45-1.07.78-1.68.99s-1.21.32-1.79.32c-.73,0-1.41-.12-2.03-.37-.62-.25-1.17-.6-1.63-1.06-.46-.46-.83-1.04-1.09-1.72-.27-.68-.4-1.46-.4-2.33Z"/>
    <path class="cls-2" d="M239.27,490.25c0-1.1.46-1.95,1.39-2.57.93-.62,2.42-1.03,4.48-1.24-.03-.46-.17-.83-.42-1.11-.25-.27-.66-.41-1.22-.41-.45,0-.9.08-1.35.25-.45.17-.93.4-1.43.69l-1.09-2.04c.67-.41,1.38-.74,2.12-.99.74-.25,1.52-.38,2.35-.38,1.35,0,2.38.38,3.08,1.15.71.77,1.06,1.95,1.06,3.57v5.98h-2.53l-.23-1.07h-.06c-.45.39-.92.71-1.42.96-.5.25-1.04.37-1.63.37-.48,0-.91-.08-1.28-.24s-.7-.39-.97-.67c-.27-.29-.47-.62-.62-1-.15-.38-.22-.79-.22-1.24ZM242.22,490.02c0,.34.11.59.33.75s.51.24.87.24.67-.08.93-.23c.25-.15.52-.37.8-.65v-1.83c-1.11.16-1.87.38-2.29.67-.42.3-.63.65-.63,1.05Z"/>
    <path class="cls-2" d="M251.31,485.14h-1.43v-2.3l1.6-.13.36-2.78h2.57v2.78h2.51v2.42h-2.51v4.19c0,.59.12,1.01.37,1.27.25.26.57.39.98.39.17,0,.34-.02.52-.06.18-.04.33-.09.47-.15l.48,2.25c-.28.08-.61.17-.99.25s-.82.13-1.33.13c-.65,0-1.2-.1-1.65-.3-.46-.2-.83-.47-1.12-.82-.29-.35-.5-.78-.63-1.27-.13-.5-.2-1.05-.2-1.65v-4.23Z"/>
    <path class="cls-2" d="M258.13,487.94c0-.84.14-1.6.42-2.28.28-.68.65-1.26,1.1-1.73s.98-.83,1.57-1.09,1.2-.38,1.83-.38c.74,0,1.39.13,1.95.38.55.25,1.02.6,1.39,1.05.37.45.65.98.83,1.59.18.61.27,1.27.27,1.99,0,.28-.01.54-.04.77-.03.23-.06.41-.08.54h-6.25c.14.8.45,1.38.94,1.74.48.36,1.08.54,1.78.54.74,0,1.49-.23,2.25-.69l1.03,1.87c-.53.37-1.13.65-1.78.86-.65.21-1.29.32-1.93.32-.74,0-1.44-.12-2.08-.37s-1.21-.6-1.68-1.07c-.48-.47-.85-1.04-1.12-1.72-.27-.67-.4-1.45-.4-2.32ZM264.87,486.86c0-.6-.13-1.1-.4-1.47s-.72-.57-1.35-.57c-.49,0-.92.16-1.29.49-.37.33-.61.85-.73,1.55h3.77Z"/>
    <path class="cls-2" d="M269.1,487.94c0-.86.12-1.62.37-2.3.25-.67.57-1.25.97-1.72s.86-.83,1.39-1.09,1.06-.38,1.61-.38c.59,0,1.07.1,1.45.3s.75.46,1.12.8l-.13-1.6v-3.56h3.09v14.76h-2.53l-.21-1.03h-.08c-.36.36-.79.67-1.28.91s-.99.37-1.49.37c-.65,0-1.23-.13-1.76-.38-.53-.25-.98-.61-1.35-1.08-.37-.47-.66-1.04-.86-1.72-.2-.67-.31-1.44-.31-2.29ZM272.28,487.89c0,1.04.16,1.8.49,2.27s.8.72,1.4.72c.34,0,.64-.07.92-.21.27-.14.54-.38.79-.74v-4.27c-.28-.25-.57-.43-.86-.53s-.58-.15-.86-.15c-.49,0-.93.23-1.3.7s-.57,1.2-.57,2.2Z"/>
    <path class="cls-2" d="M287.22,489.3c.49.42,1.03.77,1.63,1.03.6.27,1.18.4,1.76.4.65,0,1.13-.12,1.44-.36.32-.24.47-.56.47-.97,0-.21-.05-.39-.14-.55-.09-.15-.22-.29-.4-.41s-.39-.23-.63-.34c-.25-.11-.52-.22-.81-.35l-1.79-.76c-.35-.14-.69-.32-1.02-.55s-.62-.49-.88-.79c-.26-.3-.47-.65-.62-1.05-.15-.4-.23-.85-.23-1.36,0-.56.12-1.09.36-1.59s.58-.93,1.01-1.31c.43-.37.95-.66,1.55-.87.6-.21,1.25-.32,1.97-.32.8,0,1.59.15,2.37.46.78.31,1.46.76,2.05,1.35l-1.58,1.96c-.45-.35-.9-.62-1.35-.81-.45-.19-.95-.28-1.49-.28s-.96.11-1.27.33-.47.52-.47.91c0,.21.05.39.16.54.11.15.25.28.44.4.19.12.41.23.66.34.25.1.53.22.82.35l1.77.72c.84.34,1.51.8,1.99,1.39.48.59.73,1.37.73,2.34,0,.58-.12,1.12-.35,1.63-.23.51-.57.96-1.01,1.35-.44.39-.99.69-1.63.93-.65.23-1.38.35-2.19.35-.9,0-1.79-.16-2.68-.49-.89-.33-1.69-.82-2.39-1.48l1.77-2.12Z"/>
    <path class="cls-2" d="M297.18,487.94c0-.84.14-1.6.42-2.28.28-.68.65-1.26,1.1-1.73s.98-.83,1.57-1.09,1.2-.38,1.83-.38c.74,0,1.39.13,1.95.38.55.25,1.02.6,1.39,1.05.37.45.65.98.83,1.59.18.61.27,1.27.27,1.99,0,.28-.01.54-.04.77-.03.23-.06.41-.08.54h-6.25c.14.8.45,1.38.94,1.74.48.36,1.08.54,1.78.54.74,0,1.49-.23,2.25-.69l1.03,1.87c-.53.37-1.13.65-1.78.86-.65.21-1.29.32-1.93.32-.74,0-1.44-.12-2.08-.37s-1.21-.6-1.68-1.07c-.48-.47-.85-1.04-1.12-1.72-.27-.67-.4-1.45-.4-2.32ZM303.92,486.86c0-.6-.13-1.1-.4-1.47s-.72-.57-1.35-.57c-.49,0-.92.16-1.29.49-.37.33-.61.85-.73,1.55h3.77Z"/>
    <path class="cls-2" d="M308.7,482.71h2.53l.21,1.83h.08c.38-.72.83-1.24,1.37-1.58.53-.34,1.07-.51,1.6-.51.3,0,.54.02.73.05s.36.09.52.16l-.51,2.67c-.2-.06-.38-.1-.55-.13-.17-.03-.37-.04-.59-.04-.39,0-.8.14-1.23.42-.43.28-.78.78-1.06,1.49v6.06h-3.09v-10.44Z"/>
    <path class="cls-2" d="M316.06,482.71h3.12l1.35,4.93c.14.52.28,1.05.41,1.59.13.54.27,1.09.41,1.63h.08c.13-.55.26-1.09.39-1.63.13-.54.27-1.07.41-1.59l1.37-4.93h2.97l-3.41,10.44h-3.58l-3.52-10.44Z"/>
    <path class="cls-2" d="M327.41,487.94c0-.84.14-1.6.42-2.28.28-.68.65-1.26,1.1-1.73s.98-.83,1.57-1.09,1.2-.38,1.83-.38c.74,0,1.39.13,1.95.38.55.25,1.02.6,1.39,1.05.37.45.65.98.83,1.59.18.61.27,1.27.27,1.99,0,.28-.01.54-.04.77-.03.23-.06.41-.08.54h-6.25c.14.8.45,1.38.94,1.74.48.36,1.08.54,1.78.54.74,0,1.49-.23,2.25-.69l1.03,1.87c-.53.37-1.13.65-1.78.86-.65.21-1.29.32-1.93.32-.74,0-1.44-.12-2.08-.37s-1.21-.6-1.68-1.07c-.48-.47-.85-1.04-1.12-1.72-.27-.67-.4-1.45-.4-2.32ZM334.15,486.86c0-.6-.13-1.1-.4-1.47s-.72-.57-1.35-.57c-.49,0-.92.16-1.29.49-.37.33-.61.85-.73,1.55h3.77Z"/>
    <path class="cls-2" d="M338.93,482.71h2.53l.21,1.83h.08c.38-.72.83-1.24,1.37-1.58.53-.34,1.07-.51,1.6-.51.3,0,.54.02.73.05s.36.09.52.16l-.51,2.67c-.2-.06-.38-.1-.55-.13-.17-.03-.37-.04-.59-.04-.39,0-.8.14-1.23.42-.43.28-.78.78-1.06,1.49v6.06h-3.09v-10.44Z"/>
  </g>
  <g>
    <rect class="cls-4" x="90.22" y="448.19" width="75.18" height="75.18" rx="6.77" ry="6.77"/>
    <g>
      <path class="cls-6" d="M148.47,494.79h-41.32c-1.86,0-3.38-1.52-3.38-3.38v-11.27c0-1.86,1.52-3.38,3.38-3.38h41.32c1.86,0,3.38,1.52,3.38,3.38v11.27c0,1.86-1.52,3.38-3.38,3.38ZM107.15,478.27c-1.03,0-1.87.84-1.87,1.87v11.27c0,1.03.84,1.87,1.87,1.87h41.32c1.03,0,1.87-.84,1.87-1.87v-11.27c0-1.03-.84-1.87-1.87-1.87h-41.32Z"/>
      <rect class="cls-9" x="120.86" y="485.03" width="21.07" height="1.5"/>
      <path class="cls-9" d="M113.69,486.91c-.15,0-.29-.03-.44-.09-.14-.06-.26-.14-.36-.24-.1-.11-.18-.23-.24-.38-.06-.14-.09-.29-.09-.42,0-.3.12-.59.33-.8.11-.1.23-.2.36-.26.29-.1.59-.1.87,0,.14.06.26.15.36.26.21.21.33.5.33.8s-.12.59-.33.8c-.1.11-.23.18-.36.24-.14.06-.29.09-.44.09Z"/>
    </g>
  </g>
  <g>
    <path class="cls-2" d="M222.23,390.11h3.89c.65,0,1.23.06,1.77.19.53.13.99.33,1.37.6s.67.62.88,1.04c.21.42.32.93.32,1.54,0,.84-.15,1.57-.45,2.19-.3.62-.72,1.13-1.25,1.53-.53.4-1.17.69-1.91.89-.74.19-1.55.28-2.43.28h-2.21l-1.09,5.56h-1.64l2.76-13.81ZM224.48,397.04c1.43,0,2.52-.28,3.25-.84.74-.56,1.11-1.39,1.11-2.51,0-.8-.27-1.38-.8-1.74-.53-.36-1.31-.54-2.32-.54h-2.13l-1.12,5.62h2Z"/>
    <path class="cls-2" d="M238.69,403.92h-1.33l.17-1.56h-.08c-.56.49-1.13.92-1.72,1.27-.58.36-1.19.54-1.82.54-.87,0-1.49-.23-1.86-.68-.37-.46-.56-1.08-.56-1.86,0-.24.01-.46.03-.67.02-.21.07-.46.14-.74l1.31-6.53h1.62l-1.28,6.32c-.06.28-.1.51-.13.67s-.04.34-.04.53c0,.52.12.91.36,1.18.24.27.62.4,1.16.4.41,0,.86-.15,1.35-.44.49-.3,1.05-.77,1.68-1.41l1.45-7.24h1.6l-2.04,10.23Z"/>
    <path class="cls-2" d="M242.08,403.92l2.99-14.99h1.62l-.82,4-.46,2.02h.04c.51-.41,1.05-.76,1.64-1.06.59-.3,1.2-.45,1.83-.45.9,0,1.61.32,2.15.95.53.63.8,1.55.8,2.76,0,.98-.15,1.9-.46,2.76-.31.86-.72,1.6-1.23,2.23s-1.1,1.13-1.77,1.49c-.67.36-1.35.55-2.05.55-.55,0-1.04-.14-1.46-.42-.43-.28-.76-.65-1-1.12h-.06l-.42,1.28h-1.33ZM248.33,394.79c-.48,0-1,.15-1.57.44s-1.1.7-1.59,1.22l-.97,4.86c.28.53.6.92.95,1.16.35.24.73.36,1.14.36.51,0,1-.15,1.47-.45.48-.3.89-.7,1.25-1.21.36-.51.65-1.09.86-1.74.22-.65.33-1.34.33-2.05,0-.87-.17-1.52-.49-1.95-.33-.43-.79-.64-1.38-.64Z"/>
    <path class="cls-2" d="M256.35,388.94h1.62l-2.63,13.11c-.03.11-.04.2-.04.25v.15c0,.25.12.38.36.38.04,0,.08,0,.13-.01s.11-.02.21-.05l.02,1.24c-.14.06-.29.1-.44.13-.15.03-.34.04-.57.04-.45,0-.79-.12-1.02-.35-.23-.23-.35-.56-.35-.98,0-.22.04-.52.13-.88l2.59-13.03Z"/>
    <path class="cls-2" d="M260.62,393.69h1.62l-2.06,10.23h-1.6l2.04-10.23ZM261.99,391.57c-.28,0-.52-.08-.73-.24-.2-.16-.31-.4-.31-.71,0-.35.12-.64.37-.87.25-.23.53-.35.85-.35.28,0,.52.08.73.25s.31.41.31.72c0,.35-.12.64-.37.86-.25.22-.53.34-.85.34Z"/>
    <path class="cls-2" d="M263.7,400.07c0-.95.16-1.83.47-2.64.32-.81.74-1.51,1.26-2.09.53-.59,1.13-1.05,1.82-1.39.69-.34,1.4-.51,2.15-.51.62,0,1.14.12,1.56.36.42.24.79.53,1.09.88l-.95,1.01c-.27-.32-.53-.56-.8-.7s-.6-.22-1.01-.22c-.51,0-1,.14-1.47.42-.48.28-.9.66-1.27,1.13-.37.47-.67,1.02-.88,1.65-.22.63-.33,1.3-.33,2,0,.93.2,1.63.6,2.13.4.49,1.01.74,1.82.74.45,0,.86-.09,1.23-.27.37-.18.72-.39,1.04-.63l.72,1.05c-.36.28-.81.55-1.35.81-.53.26-1.18.39-1.94.39-1.12,0-2.03-.35-2.73-1.06s-1.04-1.72-1.04-3.04Z"/>
  </g>
  <g>
    <g>
      <rect class="cls-6" x="174.34" y="288.13" width="142.13" height="51.12" rx="6.77" ry="6.77"/>
      <path class="cls-8" d="M309.7,339.81h-128.59c-4.04,0-7.33-3.29-7.33-7.33v-37.59c0-4.04,3.29-7.33,7.33-7.33h128.59c4.04,0,7.33,3.29,7.33,7.33v37.59c0,4.04-3.29,7.33-7.33,7.33ZM181.11,288.69c-3.42,0-6.2,2.78-6.2,6.2v37.59c0,3.42,2.78,6.2,6.2,6.2h128.59c3.42,0,6.2-2.78,6.2-6.2v-37.59c0-3.42-2.78-6.2-6.2-6.2h-128.59Z"/>
    </g>
    <g>
      <path class="cls-2" d="M222.98,307.54h3.18l3.58,6.82,1.35,3.03h.08c-.07-.73-.15-1.54-.24-2.44-.09-.9-.14-1.75-.14-2.57v-4.84h2.95v13.73h-3.18l-3.58-6.84-1.35-2.99h-.08c.07.76.15,1.57.24,2.44.09.87.14,1.71.14,2.53v4.86h-2.95v-13.73Z"/>
      <path class="cls-2" d="M236.98,307.54h3.09v13.73h-3.09v-13.73Z"/>
      <path class="cls-2" d="M242.67,314.49c0-1.14.18-2.15.53-3.04.35-.89.82-1.65,1.42-2.26.6-.62,1.29-1.09,2.08-1.41.79-.32,1.63-.48,2.52-.48s1.63.18,2.33.54c.69.36,1.27.78,1.74,1.25l-1.71,1.91c-.35-.32-.7-.57-1.06-.76-.36-.18-.78-.27-1.25-.27s-.92.1-1.34.31c-.41.2-.78.49-1.08.87-.31.38-.55.84-.73,1.39s-.26,1.16-.26,1.85c0,1.42.3,2.52.91,3.3s1.41,1.17,2.42,1.17c.56,0,1.05-.11,1.47-.34.42-.22.8-.52,1.14-.88l1.7,1.87c-.58.67-1.23,1.18-1.97,1.52-.74.34-1.53.51-2.39.51s-1.72-.15-2.51-.45c-.79-.3-1.47-.75-2.06-1.34-.59-.59-1.05-1.32-1.39-2.2-.34-.88-.51-1.89-.51-3.04Z"/>
      <path class="cls-2" d="M259.8,318.76h2.91v-7.73h-2.51v-1.92c.73-.14,1.35-.31,1.85-.51.51-.2,1-.43,1.47-.72h2.27v10.86h2.51v2.51h-8.51v-2.51Z"/>
    </g>
  </g>
  <g>
    <g>
      <rect class="cls-6" x="359.66" y="288.13" width="142.13" height="51.12" rx="6.77" ry="6.77"/>
      <path class="cls-8" d="M495.01,339.81h-128.59c-4.04,0-7.33-3.29-7.33-7.33v-37.59c0-4.04,3.29-7.33,7.33-7.33h128.59c4.04,0,7.33,3.29,7.33,7.33v37.59c0,4.04-3.29,7.33-7.33,7.33ZM366.42,288.69c-3.42,0-6.2,2.78-6.2,6.2v37.59c0,3.42,2.78,6.2,6.2,6.2h128.59c3.42,0,6.2-2.78,6.2-6.2v-37.59c0-3.42-2.78-6.2-6.2-6.2h-128.59Z"/>
    </g>
    <g>
      <path class="cls-2" d="M408.3,307.54h3.18l3.58,6.82,1.35,3.03h.08c-.07-.73-.15-1.54-.24-2.44-.09-.9-.14-1.75-.14-2.57v-4.84h2.95v13.73h-3.18l-3.58-6.84-1.35-2.99h-.08c.07.76.15,1.57.24,2.44.09.87.14,1.71.14,2.53v4.86h-2.95v-13.73Z"/>
      <path class="cls-2" d="M422.3,307.54h3.09v13.73h-3.09v-13.73Z"/>
      <path class="cls-2" d="M427.98,314.49c0-1.14.18-2.15.53-3.04.35-.89.82-1.65,1.42-2.26.6-.62,1.29-1.09,2.08-1.41.79-.32,1.63-.48,2.52-.48s1.63.18,2.33.54c.69.36,1.27.78,1.74,1.25l-1.71,1.91c-.35-.32-.7-.57-1.06-.76-.36-.18-.78-.27-1.25-.27s-.92.1-1.34.31c-.41.2-.78.49-1.08.87-.31.38-.55.84-.73,1.39s-.26,1.16-.26,1.85c0,1.42.3,2.52.91,3.3s1.41,1.17,2.42,1.17c.56,0,1.05-.11,1.47-.34.42-.22.8-.52,1.14-.88l1.7,1.87c-.58.67-1.23,1.18-1.97,1.52-.74.34-1.53.51-2.39.51s-1.72-.15-2.51-.45c-.79-.3-1.47-.75-2.06-1.34-.59-.59-1.05-1.32-1.39-2.2-.34-.88-.51-1.89-.51-3.04Z"/>
      <path class="cls-2" d="M444.42,319.5c.86-.8,1.64-1.55,2.35-2.24.71-.69,1.32-1.35,1.83-1.96s.91-1.18,1.2-1.7c.29-.53.43-1.03.43-1.51,0-.66-.17-1.16-.51-1.51s-.8-.52-1.39-.52c-.49,0-.93.14-1.31.41s-.74.59-1.07.96l-1.68-1.66c.66-.7,1.33-1.23,2.02-1.59.69-.36,1.51-.54,2.46-.54.66,0,1.26.1,1.8.31.54.2,1.01.49,1.4.86.39.37.7.82.91,1.34.21.52.32,1.1.32,1.75,0,.56-.12,1.13-.36,1.72-.24.58-.56,1.17-.96,1.75-.4.58-.86,1.16-1.37,1.75-.51.58-1.04,1.15-1.59,1.72.34-.04.71-.08,1.13-.12.41-.03.78-.05,1.1-.05h2.69v2.61h-9.41v-1.77Z"/>
    </g>
  </g>
  <g>
    <rect class="cls-10" x="188.32" y="268.98" width="19.53" height="89.4" rx="7.22" ry="7.22"/>
    <path class="cls-8" d="M200.63,358.95h-5.09c-4.29,0-7.78-3.49-7.78-7.78v-74.97c0-4.29,3.49-7.78,7.78-7.78h5.09c4.29,0,7.78,3.49,7.78,7.78v74.97c0,4.29-3.49,7.78-7.78,7.78ZM195.54,269.55c-3.67,0-6.65,2.99-6.65,6.65v74.97c0,3.67,2.99,6.65,6.65,6.65h5.09c3.67,0,6.65-2.99,6.65-6.65v-74.97c0-3.67-2.99-6.65-6.65-6.65h-5.09Z"/>
  </g>
  <g>
    <rect class="cls-7" x="283.57" y="268.98" width="19.53" height="89.4" rx="7.22" ry="7.22"/>
    <path class="cls-8" d="M295.88,358.95h-5.09c-4.29,0-7.78-3.49-7.78-7.78v-74.97c0-4.29,3.49-7.78,7.78-7.78h5.09c4.29,0,7.78,3.49,7.78,7.78v74.97c0,4.29-3.49,7.78-7.78,7.78ZM290.79,269.55c-3.67,0-6.65,2.99-6.65,6.65v74.97c0,3.67,2.99,6.65,6.65,6.65h5.09c3.67,0,6.65-2.99,6.65-6.65v-74.97c0-3.67-2.99-6.65-6.65-6.65h-5.09Z"/>
  </g>
  <g>
    <rect class="cls-5" x="373.33" y="268.98" width="19.53" height="89.4" rx="7.22" ry="7.22"/>
    <path class="cls-8" d="M385.64,358.95h-5.09c-4.29,0-7.78-3.49-7.78-7.78v-74.97c0-4.29,3.49-7.78,7.78-7.78h5.09c4.29,0,7.78,3.49,7.78,7.78v74.97c0,4.29-3.49,7.78-7.78,7.78ZM380.55,269.55c-3.67,0-6.65,2.99-6.65,6.65v74.97c0,3.67,2.99,6.65,6.65,6.65h5.09c3.67,0,6.65-2.99,6.65-6.65v-74.97c0-3.67-2.99-6.65-6.65-6.65h-5.09Z"/>
  </g>
  <g>
    <rect class="cls-3" x="468.58" y="268.98" width="19.53" height="89.4" rx="7.22" ry="7.22"/>
    <path class="cls-8" d="M480.89,358.95h-5.09c-4.29,0-7.78-3.49-7.78-7.78v-74.97c0-4.29,3.49-7.78,7.78-7.78h5.09c4.29,0,7.78,3.49,7.78,7.78v74.97c0,4.29-3.49,7.78-7.78,7.78ZM475.8,269.55c-3.67,0-6.65,2.99-6.65,6.65v74.97c0,3.67,2.99,6.65,6.65,6.65h5.09c3.67,0,6.65-2.99,6.65-6.65v-74.97c0-3.67-2.99-6.65-6.65-6.65h-5.09Z"/>
  </g>
  <rect class="cls-2" x="196.72" y="194.47" width="1.5" height="74.49"/>
  <rect class="cls-2" x="477.9" y="194.47" width="1.5" height="74.49"/>
  <rect class="cls-2" x="337.46" y="173.4" width="1.5" height="116.64" transform="translate(-56.09 343.98) rotate(-50.31)"/>
  <rect class="cls-2" x="279.89" y="230.97" width="116.64" height="1.5" transform="translate(-70.03 269.41) rotate(-39.69)"/>
  <path class="cls-2" d="M471.13,379.74h-80.83c-4.56,0-8.27-3.71-8.27-8.27v-13.08h1.5v13.08c0,3.73,3.04,6.77,6.77,6.77h80.83c3.73,0,6.77-3.04,6.77-6.77v-13.08h1.5v13.08c0,4.56-3.71,8.27-8.27,8.27Z"/>
  <g>
    <path class="cls-2" d="M406.27,393.69h1.6l.76,5.92c.06.49.1,1,.15,1.53.04.53.09,1.04.15,1.53h.08c.24-.51.48-1.01.74-1.53.25-.51.51-1.02.78-1.53l3.01-5.92h1.62l-5.45,10.23h-1.94l-1.49-10.23Z"/>
    <path class="cls-2" d="M421.74,390.11c.64,0,1.23.06,1.76.18.53.12.98.31,1.36.57.38.26.67.59.88,1,.21.41.32.9.32,1.47,0,.63-.1,1.21-.3,1.73-.2.52-.49.97-.85,1.36s-.79.7-1.28.96-1.03.44-1.62.55l2.42,6h-1.75l-2.27-5.85h-2.4l-1.16,5.85h-1.64l2.76-13.81h3.79ZM420.35,396.74c1.32,0,2.33-.29,3.03-.86.7-.57,1.05-1.35,1.05-2.34,0-.76-.26-1.3-.79-1.63-.53-.33-1.29-.49-2.3-.49h-2.02l-1.05,5.33h2.08Z"/>
    <path class="cls-2" d="M426.75,400.47c0-.98.15-1.9.46-2.76.31-.86.72-1.6,1.24-2.23.52-.63,1.11-1.13,1.77-1.49.66-.36,1.35-.55,2.06-.55.55,0,1.03.14,1.46.42.43.28.76.65,1,1.12h.08l.4-1.28h1.31l-2.04,10.23h-1.33l.17-1.52h-.08c-.49.53-1.05.96-1.66,1.28-.62.32-1.25.48-1.89.48-.9,0-1.61-.32-2.15-.95-.53-.63-.8-1.55-.8-2.76ZM430.29,402.83c.53,0,1.08-.16,1.63-.47s1.08-.81,1.59-1.48l.93-4.57c-.29-.53-.62-.92-.97-1.16-.35-.24-.72-.36-1.12-.36-.51,0-1,.15-1.47.45-.48.3-.9.7-1.26,1.21-.37.51-.66,1.09-.87,1.74-.22.65-.33,1.33-.33,2.03,0,.88.17,1.54.51,1.97.34.43.79.64,1.37.64Z"/>
    <path class="cls-2" d="M438.01,400.07c0-.95.16-1.83.47-2.64.32-.81.74-1.51,1.26-2.09.53-.59,1.13-1.05,1.82-1.39.69-.34,1.4-.51,2.15-.51.62,0,1.14.12,1.56.36.42.24.79.53,1.09.88l-.95,1.01c-.27-.32-.53-.56-.8-.7s-.6-.22-1.01-.22c-.51,0-1,.14-1.47.42-.48.28-.9.66-1.27,1.13-.37.47-.67,1.02-.88,1.65-.22.63-.33,1.3-.33,2,0,.93.2,1.63.6,2.13.4.49,1.01.74,1.82.74.45,0,.86-.09,1.23-.27.37-.18.72-.39,1.04-.63l.72,1.05c-.36.28-.81.55-1.35.81-.53.26-1.18.39-1.94.39-1.12,0-2.03-.35-2.73-1.06s-1.04-1.72-1.04-3.04Z"/>
    <path class="cls-2" d="M450.03,388.94h1.62l-2.02,10.17h.04l5.24-5.41h1.85l-4.08,4.27,2.46,5.96h-1.64l-1.96-4.99-2.36,2.4-.55,2.59h-1.6l2.99-14.99Z"/>
  </g>
  <path class="cls-2" d="M285.82,379.74h-80.83c-4.56,0-8.27-3.71-8.27-8.27v-13.08h1.5v13.08c0,3.73,3.04,6.77,6.77,6.77h80.83c3.73,0,6.77-3.04,6.77-6.77v-13.08h1.5v13.08c0,4.56-3.71,8.27-8.27,8.27Z"/>
  <g>
    <path class="cls-4" d="M860.72,87.2h-7.61l-1.76,6.12h-4.08l7.37-22.62h4.7l7.37,22.62h-4.22l-1.77-6.12ZM859.82,84.05l-.8-2.77c-.37-1.2-.72-2.43-1.05-3.7-.33-1.27-.66-2.52-.99-3.77h-.14c-.32,1.27-.65,2.53-.97,3.79-.32,1.26-.67,2.48-1.04,3.68l-.8,2.77h5.78Z"/>
    <path class="cls-4" d="M887.97,93.11c-.46.16-.99.31-1.57.43-.59.13-1.23.19-1.92.19-.97,0-1.79-.15-2.47-.45-.68-.3-1.23-.72-1.66-1.26-.43-.54-.74-1.19-.93-1.94-.2-.75-.29-1.59-.29-2.51v-8.09h-5.64v13.83h-3.98v-13.83h-2.28v-2.97l2.28-.17v-1.76c0-.88.1-1.69.31-2.44.21-.75.54-1.39,1-1.94.46-.54,1.04-.96,1.75-1.26s1.56-.45,2.58-.45c.6,0,1.17.06,1.71.17s1.01.25,1.4.41l-.76,2.97c-.62-.28-1.25-.41-1.87-.41-1.43,0-2.14.96-2.14,2.87v1.83h5.84l.48-4.63h3.29v4.63h4.36v3.15h-4.36v8.09c0,1.98.81,2.97,2.42,2.97.3,0,.6-.03.92-.1.31-.07.59-.16.85-.28l.69,2.94Z"/>
    <path class="cls-4" d="M889.56,84.85c0-1.38.22-2.63.66-3.74.44-1.11,1.02-2.04,1.75-2.8.73-.76,1.56-1.35,2.51-1.76.95-.42,1.91-.62,2.91-.62,1.15,0,2.17.2,3.04.59.88.39,1.61.95,2.2,1.66.59.72,1.03,1.57,1.33,2.56.3.99.45,2.07.45,3.25,0,.78-.06,1.41-.17,1.87h-10.79c.18,1.54.72,2.73,1.61,3.56.89.83,2.02,1.25,3.41,1.25.74,0,1.42-.11,2.06-.33.63-.22,1.26-.52,1.89-.92l1.35,2.49c-.81.53-1.71.97-2.7,1.31s-2.03.52-3.11.52c-1.17,0-2.27-.2-3.28-.6s-1.9-.99-2.66-1.75c-.76-.76-1.36-1.69-1.78-2.78-.43-1.09-.64-2.35-.64-3.75ZM900.94,83.32c0-1.36-.28-2.42-.85-3.18-.56-.76-1.43-1.14-2.61-1.14-1.01,0-1.9.36-2.66,1.09s-1.23,1.8-1.42,3.23h7.54Z"/>
    <path class="cls-4" d="M908.2,76.34h3.28l.28,3.01h.14c.6-1.11,1.33-1.95,2.18-2.54s1.73-.88,2.63-.88c.81,0,1.45.12,1.94.35l-.69,3.46c-.3-.09-.58-.16-.83-.21-.25-.05-.56-.07-.93-.07-.67,0-1.37.26-2.11.78-.74.52-1.37,1.42-1.9,2.72v10.38h-3.98v-16.98Z"/>
  </g>
  <rect class="cls-1" x="656.4" y="243.34" width="453.38" height="280.03" rx="6.5" ry="6.5"/>
  <g>
    <path class="cls-2" d="M754.32,479.43h3.87c1.05,0,2,.13,2.84.4.84.27,1.56.68,2.17,1.23.6.56,1.07,1.26,1.39,2.12.32.86.48,1.87.48,3.05s-.16,2.2-.48,3.07c-.32.87-.78,1.59-1.37,2.16s-1.29.99-2.12,1.27c-.82.28-1.74.42-2.75.42h-4.04v-13.73ZM758,490.65c.59,0,1.12-.08,1.6-.23.48-.15.88-.4,1.22-.75.34-.34.6-.8.79-1.36s.28-1.26.28-2.09-.09-1.5-.28-2.05c-.19-.56-.45-1-.79-1.33-.34-.33-.74-.57-1.22-.71-.48-.14-1.01-.21-1.6-.21h-.59v8.72h.59Z"/>
    <path class="cls-2" d="M766.82,487.94c0-.84.14-1.6.42-2.28.28-.68.65-1.26,1.1-1.73s.98-.83,1.57-1.09,1.2-.38,1.83-.38c.74,0,1.39.13,1.95.38.55.25,1.02.6,1.39,1.05.37.45.65.98.83,1.59.18.61.27,1.27.27,1.99,0,.28-.01.54-.04.77-.03.23-.06.41-.08.54h-6.25c.14.8.45,1.38.94,1.74.48.36,1.08.54,1.78.54.74,0,1.49-.23,2.25-.69l1.03,1.87c-.53.37-1.13.65-1.78.86-.65.21-1.29.32-1.93.32-.74,0-1.44-.12-2.08-.37s-1.21-.6-1.68-1.07c-.48-.47-.85-1.04-1.12-1.72-.27-.67-.4-1.45-.4-2.32ZM773.56,486.86c0-.6-.13-1.1-.4-1.47s-.72-.57-1.35-.57c-.49,0-.92.16-1.29.49-.37.33-.61.85-.73,1.55h3.77Z"/>
    <path class="cls-2" d="M777.79,487.94c0-.86.12-1.62.37-2.3.25-.67.57-1.25.97-1.72s.86-.83,1.39-1.09,1.06-.38,1.61-.38c.59,0,1.07.1,1.45.3s.75.46,1.12.8l-.13-1.6v-3.56h3.09v14.76h-2.53l-.21-1.03h-.08c-.36.36-.79.67-1.28.91s-.99.37-1.49.37c-.65,0-1.23-.13-1.76-.38-.53-.25-.98-.61-1.35-1.08-.37-.47-.66-1.04-.86-1.72-.2-.67-.31-1.44-.31-2.29ZM780.97,487.89c0,1.04.16,1.8.49,2.27s.8.72,1.4.72c.34,0,.64-.07.92-.21.27-.14.54-.38.79-.74v-4.27c-.28-.25-.57-.43-.86-.53s-.58-.15-.86-.15c-.49,0-.93.23-1.3.7s-.57,1.2-.57,2.2Z"/>
    <path class="cls-2" d="M791.94,481.18c-.52,0-.95-.15-1.28-.45-.34-.3-.51-.69-.51-1.17s.17-.86.51-1.16c.34-.29.76-.44,1.28-.44s.96.15,1.29.44c.33.3.49.68.49,1.16s-.17.87-.49,1.17c-.33.3-.76.45-1.29.45ZM790.4,482.71h3.09v10.44h-3.09v-10.44Z"/>
    <path class="cls-2" d="M795.6,487.94c0-.87.15-1.65.44-2.33.3-.68.69-1.25,1.19-1.72.5-.46,1.08-.82,1.74-1.06.66-.25,1.35-.37,2.06-.37.64,0,1.23.11,1.75.33.52.22.95.51,1.31.87l-1.41,1.92c-.49-.41-.98-.61-1.45-.61-.76,0-1.35.27-1.79.8-.43.53-.65,1.26-.65,2.17s.22,1.63.66,2.17c.44.53,1,.8,1.67.8.38,0,.72-.08,1.03-.23.31-.15.59-.33.84-.53l1.24,1.96c-.51.45-1.07.78-1.68.99-.62.21-1.21.32-1.79.32-.73,0-1.41-.12-2.03-.37-.62-.25-1.17-.6-1.63-1.06-.46-.46-.83-1.04-1.09-1.72-.27-.68-.4-1.46-.4-2.33Z"/>
    <path class="cls-2" d="M805.45,490.25c0-1.1.46-1.95,1.39-2.57.93-.62,2.42-1.03,4.48-1.24-.03-.46-.17-.83-.42-1.11-.25-.27-.66-.41-1.22-.41-.45,0-.9.08-1.35.25-.45.17-.93.4-1.43.69l-1.09-2.04c.67-.41,1.38-.74,2.12-.99.74-.25,1.52-.38,2.35-.38,1.35,0,2.37.38,3.08,1.15s1.06,1.95,1.06,3.57v5.98h-2.53l-.23-1.07h-.06c-.45.39-.92.71-1.42.96-.5.25-1.04.37-1.63.37-.48,0-.9-.08-1.28-.24s-.7-.39-.97-.67c-.27-.29-.47-.62-.62-1-.15-.38-.22-.79-.22-1.24ZM808.4,490.02c0,.34.11.59.33.75s.51.24.87.24.67-.08.93-.23.52-.37.8-.65v-1.83c-1.11.16-1.87.38-2.3.67s-.63.65-.63,1.05Z"/>
    <path class="cls-2" d="M817.49,485.14h-1.43v-2.3l1.6-.13.36-2.78h2.57v2.78h2.51v2.42h-2.51v4.19c0,.59.12,1.01.37,1.27.25.26.57.39.98.39.17,0,.34-.02.52-.06.18-.04.33-.09.47-.15l.48,2.25c-.28.08-.61.17-.99.25s-.82.13-1.33.13c-.65,0-1.2-.1-1.65-.3-.46-.2-.83-.47-1.11-.82-.29-.35-.5-.78-.63-1.27-.13-.5-.2-1.05-.2-1.65v-4.23Z"/>
    <path class="cls-2" d="M824.31,487.94c0-.84.14-1.6.42-2.28.28-.68.65-1.26,1.11-1.73.46-.47.98-.83,1.57-1.09.59-.25,1.2-.38,1.83-.38.74,0,1.39.13,1.95.38.55.25,1.02.6,1.39,1.05s.65.98.83,1.59c.18.61.27,1.27.27,1.99,0,.28-.01.54-.04.77-.03.23-.06.41-.08.54h-6.25c.14.8.45,1.38.94,1.74s1.08.54,1.78.54c.74,0,1.49-.23,2.25-.69l1.03,1.87c-.53.37-1.13.65-1.78.86-.65.21-1.29.32-1.93.32-.74,0-1.44-.12-2.09-.37-.64-.25-1.21-.6-1.68-1.07-.48-.47-.85-1.04-1.12-1.72-.27-.67-.4-1.45-.4-2.32ZM831.05,486.86c0-.6-.13-1.1-.4-1.47-.27-.38-.72-.57-1.35-.57-.49,0-.92.16-1.3.49s-.61.85-.73,1.55h3.77Z"/>
    <path class="cls-2" d="M835.28,487.94c0-.86.12-1.62.37-2.3s.57-1.25.97-1.72c.4-.47.86-.83,1.39-1.09.53-.25,1.06-.38,1.61-.38.59,0,1.07.1,1.45.3s.75.46,1.12.8l-.13-1.6v-3.56h3.09v14.76h-2.53l-.21-1.03h-.08c-.37.36-.79.67-1.28.91-.49.25-.99.37-1.49.37-.65,0-1.23-.13-1.76-.38-.53-.25-.98-.61-1.35-1.08s-.66-1.04-.86-1.72c-.2-.67-.31-1.44-.31-2.29ZM838.46,487.89c0,1.04.16,1.8.49,2.27.33.48.8.72,1.4.72.34,0,.64-.07.92-.21.27-.14.54-.38.79-.74v-4.27c-.28-.25-.57-.43-.86-.53-.3-.1-.58-.15-.86-.15-.49,0-.93.23-1.31.7s-.57,1.2-.57,2.2Z"/>
    <path class="cls-2" d="M853.41,489.3c.49.42,1.03.77,1.63,1.03.6.27,1.18.4,1.76.4.64,0,1.13-.12,1.44-.36.32-.24.47-.56.47-.97,0-.21-.05-.39-.14-.55-.09-.15-.22-.29-.4-.41-.18-.12-.39-.23-.63-.34-.25-.11-.52-.22-.81-.35l-1.79-.76c-.35-.14-.69-.32-1.02-.55-.33-.22-.62-.49-.88-.79-.26-.3-.47-.65-.62-1.05-.15-.4-.23-.85-.23-1.36,0-.56.12-1.09.36-1.59.24-.5.58-.93,1.01-1.31s.95-.66,1.55-.87c.6-.21,1.25-.32,1.97-.32.8,0,1.59.15,2.37.46.78.31,1.46.76,2.05,1.35l-1.58,1.96c-.45-.35-.9-.62-1.35-.81s-.95-.28-1.49-.28-.96.11-1.27.33-.47.52-.47.91c0,.21.05.39.16.54s.25.28.44.4c.19.12.41.23.66.34.25.1.53.22.82.35l1.77.72c.84.34,1.51.8,1.99,1.39.48.59.73,1.37.73,2.34,0,.58-.12,1.12-.35,1.63-.23.51-.57.96-1.01,1.35-.44.39-.99.69-1.63.93-.64.23-1.37.35-2.19.35-.9,0-1.79-.16-2.68-.49-.89-.33-1.69-.82-2.39-1.48l1.77-2.12Z"/>
    <path class="cls-2" d="M863.36,487.94c0-.84.14-1.6.42-2.28.28-.68.65-1.26,1.1-1.73.46-.47.98-.83,1.57-1.09.59-.25,1.2-.38,1.83-.38.74,0,1.39.13,1.95.38.55.25,1.02.6,1.39,1.05.37.45.65.98.83,1.59.18.61.27,1.27.27,1.99,0,.28-.01.54-.04.77-.03.23-.06.41-.09.54h-6.25c.14.8.45,1.38.94,1.74.48.36,1.08.54,1.78.54.74,0,1.49-.23,2.25-.69l1.03,1.87c-.53.37-1.13.65-1.78.86s-1.3.32-1.93.32c-.74,0-1.44-.12-2.08-.37-.65-.25-1.21-.6-1.68-1.07s-.85-1.04-1.12-1.72c-.27-.67-.4-1.45-.4-2.32ZM870.1,486.86c0-.6-.13-1.1-.4-1.47-.27-.38-.72-.57-1.35-.57-.49,0-.92.16-1.29.49-.37.33-.61.85-.73,1.55h3.77Z"/>
    <path class="cls-2" d="M874.88,482.71h2.53l.21,1.83h.09c.38-.72.83-1.24,1.37-1.58.53-.34,1.07-.51,1.6-.51.3,0,.54.02.73.05s.36.09.52.16l-.51,2.67c-.2-.06-.38-.1-.55-.13-.17-.03-.37-.04-.59-.04-.39,0-.8.14-1.23.42-.43.28-.78.78-1.06,1.49v6.06h-3.09v-10.44Z"/>
    <path class="cls-2" d="M882.25,482.71h3.12l1.35,4.93c.14.52.28,1.05.41,1.59.13.54.27,1.09.41,1.63h.08c.13-.55.26-1.09.39-1.63.13-.54.27-1.07.41-1.59l1.37-4.93h2.97l-3.41,10.44h-3.58l-3.52-10.44Z"/>
    <path class="cls-2" d="M893.59,487.94c0-.84.14-1.6.42-2.28.28-.68.65-1.26,1.1-1.73.46-.47.98-.83,1.57-1.09.59-.25,1.2-.38,1.83-.38.74,0,1.39.13,1.95.38.55.25,1.02.6,1.39,1.05.37.45.65.98.83,1.59.18.61.27,1.27.27,1.99,0,.28-.01.54-.04.77-.03.23-.06.41-.09.54h-6.25c.14.8.45,1.38.94,1.74.48.36,1.08.54,1.78.54.74,0,1.49-.23,2.25-.69l1.03,1.87c-.53.37-1.13.65-1.78.86s-1.3.32-1.93.32c-.74,0-1.44-.12-2.08-.37-.65-.25-1.21-.6-1.68-1.07s-.85-1.04-1.12-1.72c-.27-.67-.4-1.45-.4-2.32ZM900.33,486.86c0-.6-.13-1.1-.4-1.47-.27-.38-.72-.57-1.35-.57-.49,0-.92.16-1.29.49-.37.33-.61.85-.73,1.55h3.77Z"/>
    <path class="cls-2" d="M905.11,482.71h2.53l.21,1.83h.09c.38-.72.83-1.24,1.37-1.58.53-.34,1.07-.51,1.6-.51.3,0,.54.02.73.05s.36.09.52.16l-.51,2.67c-.2-.06-.38-.1-.55-.13-.17-.03-.37-.04-.59-.04-.39,0-.8.14-1.23.42-.43.28-.78.78-1.06,1.49v6.06h-3.09v-10.44Z"/>
  </g>
  <g>
    <rect class="cls-4" x="656.4" y="448.19" width="75.18" height="75.18" rx="6.77" ry="6.77"/>
    <g>
      <path class="cls-6" d="M714.65,494.79h-41.32c-1.86,0-3.38-1.52-3.38-3.38v-11.27c0-1.86,1.52-3.38,3.38-3.38h41.32c1.86,0,3.38,1.52,3.38,3.38v11.27c0,1.86-1.52,3.38-3.38,3.38ZM673.34,478.27c-1.03,0-1.87.84-1.87,1.87v11.27c0,1.03.84,1.87,1.87,1.87h41.32c1.03,0,1.87-.84,1.87-1.87v-11.27c0-1.03-.84-1.87-1.87-1.87h-41.32Z"/>
      <rect class="cls-9" x="687.05" y="485.03" width="21.07" height="1.5"/>
      <path class="cls-9" d="M679.88,486.91c-.3,0-.59-.12-.8-.33-.1-.11-.18-.23-.24-.38-.06-.14-.09-.29-.09-.42,0-.3.12-.59.33-.8.32-.32.81-.42,1.23-.26.14.06.26.15.36.26.21.21.33.5.33.8,0,.14-.03.29-.09.42-.06.15-.14.27-.24.38s-.23.18-.36.24c-.15.06-.29.09-.44.09Z"/>
    </g>
  </g>
  <g>
    <path class="cls-2" d="M881.11,433.84h3.89c.64,0,1.23.06,1.77.19s.99.33,1.37.6.67.62.88,1.04c.21.42.32.93.32,1.54,0,.84-.15,1.57-.45,2.19-.3.62-.72,1.13-1.25,1.53-.53.4-1.17.69-1.91.89-.74.19-1.55.28-2.43.28h-2.21l-1.09,5.56h-1.64l2.76-13.81ZM883.36,440.76c1.43,0,2.52-.28,3.25-.84.74-.56,1.11-1.39,1.11-2.51,0-.8-.27-1.38-.8-1.74-.53-.36-1.31-.54-2.32-.54h-2.13l-1.11,5.62h2Z"/>
    <path class="cls-2" d="M897.57,447.65h-1.33l.17-1.56h-.08c-.56.49-1.13.92-1.72,1.27-.58.36-1.19.54-1.82.54-.87,0-1.49-.23-1.86-.68-.37-.46-.56-1.08-.56-1.86,0-.24.01-.46.03-.67.02-.21.07-.46.14-.74l1.31-6.53h1.62l-1.28,6.32c-.06.28-.1.51-.13.67s-.04.34-.04.53c0,.52.12.91.36,1.18.24.27.62.4,1.16.4.41,0,.86-.15,1.35-.44.49-.3,1.05-.77,1.68-1.41l1.45-7.24h1.6l-2.04,10.23Z"/>
    <path class="cls-2" d="M900.96,447.65l2.99-14.99h1.62l-.82,4-.46,2.02h.04c.51-.41,1.05-.76,1.64-1.06.59-.3,1.2-.45,1.83-.45.9,0,1.61.32,2.15.95.53.63.8,1.55.8,2.76,0,.98-.15,1.9-.46,2.76s-.72,1.6-1.23,2.23-1.1,1.13-1.77,1.49-1.35.55-2.05.55c-.55,0-1.04-.14-1.46-.42-.43-.28-.76-.65-1-1.12h-.06l-.42,1.28h-1.33ZM907.21,438.51c-.48,0-1,.15-1.57.44s-1.1.7-1.59,1.22l-.97,4.86c.28.53.6.92.95,1.16.35.24.73.36,1.14.36.51,0,1-.15,1.47-.45.48-.3.89-.7,1.25-1.21s.64-1.09.86-1.74c.22-.65.33-1.34.33-2.05,0-.87-.17-1.52-.49-1.95-.33-.43-.79-.64-1.38-.64Z"/>
    <path class="cls-2" d="M915.23,432.66h1.62l-2.63,13.11c-.03.11-.04.2-.04.25v.15c0,.25.12.38.36.38.04,0,.08,0,.13-.01.04,0,.11-.02.21-.05l.02,1.24c-.14.06-.29.1-.44.13-.15.03-.34.04-.57.04-.45,0-.79-.12-1.02-.35-.23-.23-.35-.56-.35-.98,0-.22.04-.52.13-.88l2.59-13.03Z"/>
    <path class="cls-2" d="M919.51,437.41h1.62l-2.06,10.23h-1.6l2.04-10.23ZM920.87,435.29c-.28,0-.52-.08-.73-.24-.2-.16-.31-.4-.31-.71,0-.35.12-.64.37-.87.25-.23.53-.35.85-.35.28,0,.52.08.73.25.2.17.31.41.31.72,0,.35-.12.64-.37.86s-.53.34-.85.34Z"/>
    <path class="cls-2" d="M922.58,443.79c0-.95.16-1.83.47-2.64.32-.81.74-1.51,1.26-2.09.53-.59,1.13-1.05,1.82-1.39.69-.34,1.4-.51,2.15-.51.62,0,1.14.12,1.56.36.42.24.79.53,1.09.88l-.95,1.01c-.27-.32-.53-.56-.8-.7-.27-.15-.6-.22-1.01-.22-.51,0-1,.14-1.47.42-.48.28-.9.66-1.27,1.13-.37.47-.67,1.02-.88,1.65s-.33,1.3-.33,2c0,.93.2,1.63.6,2.13.4.49,1.01.74,1.82.74.45,0,.86-.09,1.23-.27s.72-.39,1.04-.63l.72,1.05c-.36.28-.81.55-1.35.81-.53.26-1.18.39-1.94.39-1.12,0-2.03-.35-2.73-1.06s-1.04-1.72-1.04-3.04Z"/>
  </g>
  <g>
    <g>
      <rect class="cls-6" x="740.26" y="288.13" width="142.13" height="51.12" rx="6.77" ry="6.77"/>
      <path class="cls-8" d="M875.61,339.81h-128.59c-4.04,0-7.33-3.29-7.33-7.33v-37.59c0-4.04,3.29-7.33,7.33-7.33h128.59c4.04,0,7.33,3.29,7.33,7.33v37.59c0,4.04-3.29,7.33-7.33,7.33ZM747.02,288.69c-3.42,0-6.2,2.78-6.2,6.2v37.59c0,3.42,2.78,6.2,6.2,6.2h128.59c3.42,0,6.2-2.78,6.2-6.2v-37.59c0-3.42-2.78-6.2-6.2-6.2h-128.59Z"/>
    </g>
    <g>
      <path class="cls-2" d="M788.9,307.54h3.18l3.58,6.82,1.35,3.03h.08c-.07-.73-.15-1.54-.24-2.44-.09-.9-.14-1.75-.14-2.57v-4.84h2.95v13.73h-3.18l-3.58-6.84-1.35-2.99h-.08c.07.76.15,1.57.24,2.44.09.87.14,1.71.14,2.53v4.86h-2.95v-13.73Z"/>
      <path class="cls-2" d="M802.9,307.54h3.09v13.73h-3.09v-13.73Z"/>
      <path class="cls-2" d="M808.58,314.49c0-1.14.18-2.15.53-3.04.35-.89.82-1.65,1.42-2.26.6-.62,1.29-1.09,2.09-1.41.79-.32,1.63-.48,2.52-.48s1.63.18,2.33.54c.69.36,1.27.78,1.74,1.25l-1.71,1.91c-.35-.32-.7-.57-1.06-.76-.36-.18-.78-.27-1.25-.27s-.92.1-1.34.31c-.41.2-.78.49-1.08.87-.31.38-.55.84-.73,1.39-.17.55-.26,1.16-.26,1.85,0,1.42.3,2.52.9,3.3s1.41,1.17,2.42,1.17c.56,0,1.05-.11,1.47-.34.42-.22.8-.52,1.14-.88l1.7,1.87c-.58.67-1.23,1.18-1.97,1.52-.74.34-1.53.51-2.39.51s-1.72-.15-2.51-.45c-.79-.3-1.47-.75-2.06-1.34-.59-.59-1.05-1.32-1.39-2.2-.34-.88-.51-1.89-.51-3.04Z"/>
      <path class="cls-2" d="M825.72,318.76h2.9v-7.73h-2.51v-1.92c.73-.14,1.35-.31,1.85-.51.51-.2,1-.43,1.47-.72h2.27v10.86h2.51v2.51h-8.51v-2.51Z"/>
    </g>
  </g>
  <g>
    <g>
      <rect class="cls-6" x="925.57" y="288.13" width="142.13" height="51.12" rx="6.77" ry="6.77"/>
      <path class="cls-8" d="M1060.93,339.81h-128.59c-4.04,0-7.33-3.29-7.33-7.33v-37.59c0-4.04,3.29-7.33,7.33-7.33h128.59c4.04,0,7.33,3.29,7.33,7.33v37.59c0,4.04-3.29,7.33-7.33,7.33ZM932.34,288.69c-3.42,0-6.2,2.78-6.2,6.2v37.59c0,3.42,2.78,6.2,6.2,6.2h128.59c3.42,0,6.2-2.78,6.2-6.2v-37.59c0-3.42-2.78-6.2-6.2-6.2h-128.59Z"/>
    </g>
    <g>
      <path class="cls-2" d="M974.21,307.54h3.18l3.58,6.82,1.35,3.03h.09c-.07-.73-.15-1.54-.24-2.44-.09-.9-.14-1.75-.14-2.57v-4.84h2.95v13.73h-3.18l-3.58-6.84-1.35-2.99h-.08c.07.76.15,1.57.24,2.44.09.87.14,1.71.14,2.53v4.86h-2.95v-13.73Z"/>
      <path class="cls-2" d="M988.21,307.54h3.09v13.73h-3.09v-13.73Z"/>
      <path class="cls-2" d="M993.9,314.49c0-1.14.18-2.15.53-3.04.35-.89.82-1.65,1.42-2.26.6-.62,1.29-1.09,2.09-1.41.79-.32,1.63-.48,2.52-.48s1.63.18,2.33.54c.69.36,1.27.78,1.74,1.25l-1.71,1.91c-.35-.32-.7-.57-1.06-.76-.36-.18-.78-.27-1.25-.27s-.92.1-1.34.31c-.41.2-.78.49-1.08.87-.31.38-.55.84-.73,1.39-.17.55-.26,1.16-.26,1.85,0,1.42.3,2.52.9,3.3s1.41,1.17,2.42,1.17c.56,0,1.05-.11,1.47-.34.42-.22.8-.52,1.14-.88l1.7,1.87c-.58.67-1.23,1.18-1.97,1.52-.74.34-1.53.51-2.39.51s-1.72-.15-2.51-.45c-.79-.3-1.47-.75-2.06-1.34-.59-.59-1.05-1.32-1.39-2.2-.34-.88-.51-1.89-.51-3.04Z"/>
      <path class="cls-2" d="M1010.34,319.5c.86-.8,1.64-1.55,2.35-2.24s1.32-1.35,1.83-1.96.91-1.18,1.2-1.7c.29-.53.43-1.03.43-1.51,0-.66-.17-1.16-.51-1.51-.34-.34-.8-.52-1.39-.52-.49,0-.93.14-1.31.41s-.74.59-1.07.96l-1.68-1.66c.66-.7,1.33-1.23,2.02-1.59.69-.36,1.51-.54,2.46-.54.66,0,1.26.1,1.8.31.54.2,1.01.49,1.4.86.39.37.69.82.9,1.34.21.52.32,1.1.32,1.75,0,.56-.12,1.13-.36,1.72-.24.58-.56,1.17-.96,1.75-.4.58-.86,1.16-1.37,1.75-.51.58-1.04,1.15-1.59,1.72.34-.04.71-.08,1.13-.12.41-.03.78-.05,1.11-.05h2.69v2.61h-9.41v-1.77Z"/>
    </g>
  </g>
  <g>
    <rect class="cls-10" x="754.24" y="268.98" width="19.53" height="89.4" rx="7.22" ry="7.22"/>
    <path class="cls-8" d="M766.55,358.95h-5.09c-4.29,0-7.78-3.49-7.78-7.78v-74.97c0-4.29,3.49-7.78,7.78-7.78h5.09c4.29,0,7.78,3.49,7.78,7.78v74.97c0,4.29-3.49,7.78-7.78,7.78ZM761.46,269.55c-3.67,0-6.65,2.99-6.65,6.65v74.97c0,3.67,2.99,6.65,6.65,6.65h5.09c3.67,0,6.65-2.99,6.65-6.65v-74.97c0-3.67-2.99-6.65-6.65-6.65h-5.09Z"/>
  </g>
  <g>
    <rect class="cls-7" x="849.49" y="268.98" width="19.53" height="89.4" rx="7.22" ry="7.22"/>
    <path class="cls-8" d="M861.8,358.95h-5.09c-4.29,0-7.78-3.49-7.78-7.78v-74.97c0-4.29,3.49-7.78,7.78-7.78h5.09c4.29,0,7.78,3.49,7.78,7.78v74.97c0,4.29-3.49,7.78-7.78,7.78ZM856.71,269.55c-3.67,0-6.65,2.99-6.65,6.65v74.97c0,3.67,2.99,6.65,6.65,6.65h5.09c3.67,0,6.65-2.99,6.65-6.65v-74.97c0-3.67-2.99-6.65-6.65-6.65h-5.09Z"/>
  </g>
  <g>
    <rect class="cls-5" x="939.25" y="268.98" width="19.53" height="89.4" rx="7.22" ry="7.22"/>
    <path class="cls-8" d="M951.55,358.95h-5.09c-4.29,0-7.78-3.49-7.78-7.78v-74.97c0-4.29,3.49-7.78,7.78-7.78h5.09c4.29,0,7.78,3.49,7.78,7.78v74.97c0,4.29-3.49,7.78-7.78,7.78ZM946.46,269.55c-3.67,0-6.65,2.99-6.65,6.65v74.97c0,3.67,2.99,6.65,6.65,6.65h5.09c3.67,0,6.65-2.99,6.65-6.65v-74.97c0-3.67-2.99-6.65-6.65-6.65h-5.09Z"/>
  </g>
  <g>
    <rect class="cls-3" x="1034.5" y="268.98" width="19.53" height="89.4" rx="7.22" ry="7.22"/>
    <path class="cls-8" d="M1046.8,358.95h-5.09c-4.29,0-7.78-3.49-7.78-7.78v-74.97c0-4.29,3.49-7.78,7.78-7.78h5.09c4.29,0,7.78,3.49,7.78,7.78v74.97c0,4.29-3.49,7.78-7.78,7.78ZM1041.71,269.55c-3.67,0-6.65,2.99-6.65,6.65v74.97c0,3.67,2.99,6.65,6.65,6.65h5.09c3.67,0,6.65-2.99,6.65-6.65v-74.97c0-3.67-2.99-6.65-6.65-6.65h-5.09Z"/>
  </g>
  <rect class="cls-2" x="762.63" y="194.47" width="1.5" height="74.49"/>
  <rect class="cls-2" x="1043.82" y="194.47" width="1.5" height="74.49"/>
  <rect class="cls-2" x="903.38" y="173.4" width="1.5" height="116.64" transform="translate(148.4 779.45) rotate(-50.31)"/>
  <rect class="cls-2" x="845.81" y="230.97" width="116.64" height="1.5" transform="translate(60.42 630.83) rotate(-39.69)"/>
  <path class="cls-2" d="M941.49,379.74h-74.72c-4.56,0-8.27-3.71-8.27-8.27v-13.08h1.5v13.08c0,3.73,3.04,6.77,6.77,6.77h74.72c3.73,0,6.77-3.04,6.77-6.77v-13.08h1.5v13.08c0,4.56-3.71,8.27-8.27,8.27Z"/>
  <g>
    <path class="cls-2" d="M879.83,393.69h1.6l.76,5.91c.06.49.11,1,.15,1.53.04.53.09,1.04.15,1.53h.08c.24-.51.48-1.01.74-1.53s.51-1.02.78-1.53l3.01-5.91h1.62l-5.45,10.23h-1.94l-1.49-10.23Z"/>
    <path class="cls-2" d="M895.31,390.11c.64,0,1.23.06,1.76.18.53.12.98.31,1.36.57s.67.59.88,1c.21.41.32.9.32,1.47,0,.63-.1,1.21-.3,1.73-.2.52-.49.97-.85,1.36-.37.39-.79.71-1.28.96-.49.25-1.03.43-1.62.55l2.42,6h-1.75l-2.27-5.85h-2.4l-1.16,5.85h-1.64l2.76-13.81h3.79ZM893.92,396.74c1.32,0,2.33-.29,3.03-.86s1.05-1.35,1.05-2.34c0-.76-.26-1.3-.79-1.63-.53-.33-1.3-.49-2.31-.49h-2.02l-1.05,5.33h2.08Z"/>
    <path class="cls-2" d="M900.32,400.47c0-.98.15-1.9.46-2.76.31-.86.72-1.6,1.24-2.23.52-.63,1.11-1.13,1.77-1.49.66-.37,1.35-.55,2.06-.55.55,0,1.03.14,1.46.42.43.28.76.65,1,1.11h.08l.4-1.28h1.31l-2.04,10.23h-1.33l.17-1.52h-.09c-.49.53-1.05.96-1.66,1.28-.62.32-1.25.48-1.9.48-.9,0-1.61-.32-2.15-.95s-.8-1.55-.8-2.76ZM903.85,402.83c.53,0,1.08-.16,1.63-.47.55-.32,1.08-.81,1.59-1.48l.93-4.57c-.3-.53-.62-.92-.97-1.16-.35-.24-.72-.36-1.12-.36-.51,0-1,.15-1.47.45-.48.3-.9.7-1.26,1.21-.37.51-.66,1.08-.87,1.74-.22.65-.33,1.33-.33,2.03,0,.88.17,1.54.51,1.97.34.43.79.64,1.37.64Z"/>
    <path class="cls-2" d="M911.58,400.07c0-.95.16-1.84.47-2.64.32-.81.74-1.51,1.26-2.1.53-.59,1.13-1.05,1.82-1.39.69-.34,1.4-.51,2.15-.51.62,0,1.14.12,1.56.36.42.24.79.53,1.09.88l-.95,1.01c-.27-.32-.53-.56-.8-.7-.27-.15-.6-.22-1.01-.22-.51,0-1,.14-1.47.42-.48.28-.9.66-1.27,1.13s-.67,1.02-.88,1.65-.33,1.3-.33,2c0,.93.2,1.64.6,2.13.4.49,1.01.74,1.82.74.45,0,.86-.09,1.23-.27.37-.18.72-.39,1.04-.63l.72,1.05c-.36.28-.81.55-1.35.81-.53.26-1.18.39-1.94.39-1.12,0-2.03-.35-2.73-1.06-.69-.71-1.04-1.72-1.04-3.04Z"/>
    <path class="cls-2" d="M923.6,388.93h1.62l-2.02,10.17h.04l5.24-5.41h1.85l-4.08,4.27,2.46,5.96h-1.64l-1.96-4.99-2.36,2.4-.55,2.59h-1.6l2.99-14.99Z"/>
  </g>
  <path class="cls-2" d="M1037.05,423.35h-266.15c-4.56,0-8.27-3.71-8.27-8.27v-56.69h1.5v56.69c0,3.73,3.04,6.77,6.77,6.77h266.15c3.73,0,6.77-3.04,6.77-6.77v-56.69h1.5v56.69c0,4.56-3.71,8.27-8.27,8.27Z"/>
  <g>
    <g>
      <rect class="cls-6" x="174.34" y="143.37" width="142.13" height="51.12" rx="6.77" ry="6.77"/>
      <path class="cls-8" d="M309.7,195.05h-128.59c-4.04,0-7.33-3.29-7.33-7.33v-37.59c0-4.04,3.29-7.33,7.33-7.33h128.59c4.04,0,7.33,3.29,7.33,7.33v37.59c0,4.04-3.29,7.33-7.33,7.33ZM181.11,143.93c-3.42,0-6.2,2.78-6.2,6.2v37.59c0,3.42,2.78,6.2,6.2,6.2h128.59c3.42,0,6.2-2.78,6.2-6.2v-37.59c0-3.42-2.78-6.2-6.2-6.2h-128.59Z"/>
    </g>
    <g>
      <path class="cls-2" d="M222.24,165.4h-3.77v-2.61h10.65v2.61h-3.77v11.12h-3.12v-11.12Z"/>
      <path class="cls-2" d="M236.26,176.76c-.93,0-1.77-.17-2.54-.49-.77-.33-1.42-.8-1.97-1.42s-.97-1.37-1.27-2.25-.45-1.89-.45-3.01.15-2.12.45-3c.3-.88.73-1.61,1.27-2.21.55-.6,1.2-1.05,1.97-1.37.76-.32,1.61-.47,2.54-.47s1.77.16,2.54.47c.76.32,1.42.78,1.97,1.38.55.6.97,1.34,1.27,2.22s.45,1.87.45,2.98-.15,2.13-.45,3.01-.73,1.64-1.27,2.25c-.55.62-1.2,1.09-1.97,1.42-.77.33-1.61.49-2.54.49ZM236.26,174.09c.94,0,1.68-.4,2.23-1.21.55-.81.82-1.91.82-3.29s-.27-2.45-.82-3.22c-.55-.77-1.29-1.16-2.23-1.16s-1.68.39-2.23,1.16c-.55.77-.82,1.85-.82,3.22s.27,2.49.82,3.29c.55.81,1.29,1.21,2.23,1.21Z"/>
      <path class="cls-2" d="M252.51,176.51l-2.63-4.95h-1.7v4.95h-3.09v-13.73h4.95c.73,0,1.41.07,2.05.21s1.2.38,1.67.7c.48.33.86.77,1.14,1.32.28.55.42,1.23.42,2.04,0,1.01-.22,1.84-.66,2.49s-1.04,1.14-1.78,1.46l3.12,5.49h-3.47ZM248.17,169.1h1.6c.81,0,1.43-.17,1.86-.52.43-.34.64-.85.64-1.53s-.21-1.14-.64-1.41c-.43-.27-1.05-.4-1.86-.4h-1.6v3.85Z"/>
      <path class="cls-2" d="M268.86,173.25h-4.19l-.84,3.26h-3.16l4.29-13.73h3.73l4.29,13.73h-3.28l-.84-3.26ZM268.23,170.83l-.32-1.26c-.2-.69-.39-1.42-.57-2.19-.18-.77-.36-1.52-.55-2.23h-.08c-.17.73-.34,1.48-.52,2.24s-.36,1.49-.56,2.18l-.34,1.26h2.93Z"/>
    </g>
  </g>
  <g>
    <rect class="cls-6" x="359.66" y="143.37" width="142.13" height="51.12" rx="6.77" ry="6.77"/>
    <path class="cls-8" d="M495.01,195.05h-128.59c-4.04,0-7.33-3.29-7.33-7.33v-37.59c0-4.04,3.29-7.33,7.33-7.33h128.59c4.04,0,7.33,3.29,7.33,7.33v37.59c0,4.04-3.29,7.33-7.33,7.33ZM366.42,143.93c-3.42,0-6.2,2.78-6.2,6.2v37.59c0,3.42,2.78,6.2,6.2,6.2h128.59c3.42,0,6.2-2.78,6.2-6.2v-37.59c0-3.42-2.78-6.2-6.2-6.2h-128.59Z"/>
  </g>
  <g>
    <path class="cls-2" d="M407.21,165.4h-3.77v-2.61h10.65v2.61h-3.77v11.12h-3.12v-11.12Z"/>
    <path class="cls-2" d="M421.23,176.76c-.93,0-1.77-.17-2.54-.49-.77-.33-1.42-.8-1.97-1.42s-.97-1.37-1.27-2.25-.45-1.89-.45-3.01.15-2.12.45-3c.3-.88.73-1.61,1.27-2.21.55-.6,1.2-1.05,1.97-1.37.76-.32,1.61-.47,2.54-.47s1.77.16,2.54.47c.76.32,1.42.78,1.97,1.38.55.6.97,1.34,1.27,2.22s.45,1.87.45,2.98-.15,2.13-.45,3.01-.73,1.64-1.27,2.25c-.55.62-1.2,1.09-1.97,1.42-.77.33-1.61.49-2.54.49ZM421.23,174.09c.94,0,1.68-.4,2.23-1.21.55-.81.82-1.91.82-3.29s-.27-2.45-.82-3.22c-.55-.77-1.29-1.16-2.23-1.16s-1.68.39-2.23,1.16c-.55.77-.82,1.85-.82,3.22s.27,2.49.82,3.29c.55.81,1.29,1.21,2.23,1.21Z"/>
    <path class="cls-2" d="M437.49,176.51l-2.63-4.95h-1.7v4.95h-3.09v-13.73h4.95c.73,0,1.41.07,2.05.21s1.2.38,1.67.7c.48.33.86.77,1.14,1.32.28.55.42,1.23.42,2.04,0,1.01-.22,1.84-.66,2.49s-1.04,1.14-1.78,1.46l3.12,5.49h-3.47ZM433.15,169.1h1.6c.81,0,1.43-.17,1.86-.52.43-.34.64-.85.64-1.53s-.21-1.14-.64-1.41c-.43-.27-1.05-.4-1.86-.4h-1.6v3.85Z"/>
    <path class="cls-2" d="M447.4,162.78h4.69c.72,0,1.38.05,1.99.16.61.1,1.14.29,1.6.56s.81.62,1.07,1.05c.26.44.39.98.39,1.64,0,.31-.05.62-.14.93-.09.31-.23.6-.41.86-.18.27-.42.51-.72.72-.3.21-.64.36-1.03.46v.08c.98.18,1.72.53,2.22,1.05.5.52.75,1.24.75,2.17,0,.7-.14,1.31-.41,1.81-.27.51-.65.92-1.14,1.25s-1.05.58-1.69.74c-.65.16-1.34.24-2.08.24h-5.09v-13.73ZM451.95,168.32c.76,0,1.31-.15,1.65-.45.34-.3.52-.71.52-1.23s-.18-.89-.53-1.12c-.35-.22-.89-.34-1.62-.34h-1.47v3.14h1.45ZM452.24,174.11c1.7,0,2.55-.62,2.55-1.87,0-.6-.21-1.04-.63-1.32-.42-.27-1.06-.41-1.92-.41h-1.75v3.6h1.75Z"/>
  </g>
  <g>
    <g>
      <rect class="cls-6" x="740.26" y="143.37" width="142.13" height="51.12" rx="6.77" ry="6.77"/>
      <path class="cls-8" d="M875.61,195.05h-128.59c-4.04,0-7.33-3.29-7.33-7.33v-37.59c0-4.04,3.29-7.33,7.33-7.33h128.59c4.04,0,7.33,3.29,7.33,7.33v37.59c0,4.04-3.29,7.33-7.33,7.33ZM747.02,143.93c-3.42,0-6.2,2.78-6.2,6.2v37.59c0,3.42,2.78,6.2,6.2,6.2h128.59c3.42,0,6.2-2.78,6.2-6.2v-37.59c0-3.42-2.78-6.2-6.2-6.2h-128.59Z"/>
    </g>
    <g>
      <path class="cls-2" d="M788.15,165.4h-3.77v-2.61h10.65v2.61h-3.77v11.12h-3.12v-11.12Z"/>
      <path class="cls-2" d="M802.17,176.76c-.93,0-1.77-.17-2.54-.49-.77-.33-1.42-.8-1.97-1.42s-.97-1.37-1.27-2.25-.45-1.89-.45-3.01.15-2.12.45-3c.3-.88.73-1.61,1.27-2.21.55-.6,1.2-1.05,1.97-1.37.76-.32,1.61-.47,2.54-.47s1.77.16,2.54.47c.76.32,1.42.78,1.97,1.38s.97,1.34,1.27,2.22c.3.88.45,1.87.45,2.98s-.15,2.13-.45,3.01c-.3.88-.73,1.64-1.27,2.25s-1.2,1.09-1.97,1.42c-.77.33-1.61.49-2.54.49ZM802.17,174.09c.94,0,1.68-.4,2.23-1.21s.82-1.91.82-3.29-.27-2.45-.82-3.22c-.55-.77-1.29-1.16-2.23-1.16s-1.68.39-2.23,1.16c-.55.77-.82,1.85-.82,3.22s.27,2.49.82,3.29c.55.81,1.29,1.21,2.23,1.21Z"/>
      <path class="cls-2" d="M818.42,176.51l-2.63-4.95h-1.7v4.95h-3.09v-13.73h4.95c.73,0,1.41.07,2.05.21s1.2.38,1.67.7.86.77,1.14,1.32c.28.55.42,1.23.42,2.04,0,1.01-.22,1.84-.66,2.49s-1.04,1.14-1.78,1.46l3.12,5.49h-3.47ZM814.09,169.1h1.6c.81,0,1.43-.17,1.86-.52.43-.34.64-.85.64-1.53s-.21-1.14-.64-1.41c-.43-.27-1.05-.4-1.86-.4h-1.6v3.85Z"/>
      <path class="cls-2" d="M834.78,173.25h-4.19l-.84,3.26h-3.16l4.29-13.73h3.73l4.29,13.73h-3.28l-.84-3.26ZM834.15,170.83l-.32-1.26c-.2-.69-.39-1.42-.57-2.19-.18-.77-.36-1.52-.55-2.23h-.09c-.17.73-.34,1.48-.52,2.24-.18.77-.36,1.49-.56,2.18l-.34,1.26h2.93Z"/>
    </g>
  </g>
  <g>
    <rect class="cls-6" x="925.57" y="143.37" width="142.13" height="51.12" rx="6.77" ry="6.77"/>
    <path class="cls-8" d="M1060.93,195.05h-128.59c-4.04,0-7.33-3.29-7.33-7.33v-37.59c0-4.04,3.29-7.33,7.33-7.33h128.59c4.04,0,7.33,3.29,7.33,7.33v37.59c0,4.04-3.29,7.33-7.33,7.33ZM932.34,143.93c-3.42,0-6.2,2.78-6.2,6.2v37.59c0,3.42,2.78,6.2,6.2,6.2h128.59c3.42,0,6.2-2.78,6.2-6.2v-37.59c0-3.42-2.78-6.2-6.2-6.2h-128.59Z"/>
  </g>
  <g>
    <path class="cls-2" d="M973.13,165.4h-3.77v-2.61h10.65v2.61h-3.77v11.12h-3.12v-11.12Z"/>
    <path class="cls-2" d="M987.15,176.76c-.93,0-1.77-.17-2.54-.49s-1.42-.8-1.97-1.42c-.55-.62-.97-1.37-1.27-2.25-.3-.88-.45-1.89-.45-3.01s.15-2.12.45-3c.3-.88.73-1.61,1.27-2.21.55-.6,1.2-1.05,1.97-1.37s1.61-.47,2.54-.47,1.77.16,2.54.47,1.42.78,1.97,1.38c.55.6.97,1.34,1.27,2.22.3.88.45,1.87.45,2.98s-.15,2.13-.45,3.01c-.3.88-.73,1.64-1.27,2.25-.55.62-1.2,1.09-1.97,1.42s-1.61.49-2.54.49ZM987.15,174.09c.94,0,1.68-.4,2.23-1.21.55-.81.82-1.91.82-3.29s-.27-2.45-.82-3.22c-.55-.77-1.29-1.16-2.23-1.16s-1.68.39-2.23,1.16c-.55.77-.82,1.85-.82,3.22s.27,2.49.82,3.29,1.29,1.21,2.23,1.21Z"/>
    <path class="cls-2" d="M1003.4,176.51l-2.63-4.95h-1.7v4.95h-3.1v-13.73h4.95c.73,0,1.41.07,2.05.21s1.2.38,1.67.7c.48.33.85.77,1.14,1.32.28.55.42,1.23.42,2.04,0,1.01-.22,1.84-.66,2.49s-1.04,1.14-1.78,1.46l3.12,5.49h-3.47ZM999.07,169.1h1.6c.81,0,1.43-.17,1.86-.52.43-.34.64-.85.64-1.53s-.21-1.14-.64-1.41c-.43-.27-1.05-.4-1.86-.4h-1.6v3.85Z"/>
    <path class="cls-2" d="M1013.32,162.78h4.69c.72,0,1.38.05,1.99.16s1.14.29,1.6.56c.46.27.81.62,1.07,1.05.26.44.39.98.39,1.64,0,.31-.05.62-.14.93-.09.31-.23.6-.41.86s-.42.51-.72.72c-.3.21-.64.36-1.03.46v.08c.98.18,1.72.53,2.22,1.05.5.52.75,1.24.75,2.17,0,.7-.14,1.31-.41,1.81s-.65.92-1.14,1.25c-.48.33-1.05.58-1.69.74-.65.16-1.34.24-2.09.24h-5.09v-13.73ZM1017.86,168.32c.76,0,1.31-.15,1.65-.45s.52-.71.52-1.23-.17-.89-.53-1.12c-.35-.22-.89-.34-1.62-.34h-1.47v3.14h1.45ZM1018.16,174.11c1.7,0,2.55-.62,2.55-1.87,0-.6-.21-1.04-.63-1.32-.42-.27-1.06-.41-1.92-.41h-1.75v3.6h1.75Z"/>
  </g>
</svg>